<svg width="80" height="80" viewBox="0 0 80 80" fill="none" xmlns="http://www.w3.org/2000/svg">
<rect x="1" y="1" width="78" height="78" rx="19" stroke="#DFBD69" stroke-width="2"/>
<path d="M12.5714 10.3704C12.5714 9.74171 12.8122 9.1388 13.2409 8.69427C13.6696 8.24973 14.2509 8 14.8571 8H65.1429C65.7491 8 66.3305 8.24973 66.7591 8.69427C67.1878 9.1388 67.4286 9.74171 67.4286 10.3704C67.4286 10.999 67.1878 11.6019 66.7591 12.0465C66.3305 12.491 65.7491 12.7407 65.1429 12.7407H58.2857C58.2857 14.0587 57.3623 15.1111 56.2057 15.1111H54.8571V22.4356C56.8 22.9807 58.24 24.8533 58.24 27.0341C58.24 28.6839 57.4171 30.144 56.176 30.9926L58.2789 34.0741H68.5394C68.8463 34.0715 69.1417 34.1945 69.3616 34.4164C69.5816 34.6383 69.7083 34.9411 69.7143 35.2593C69.7143 35.4157 69.6844 35.5706 69.6264 35.715C69.5684 35.8594 69.4834 35.9905 69.3763 36.1007C69.2692 36.2109 69.1422 36.298 69.0024 36.357C68.8627 36.416 68.7131 36.4457 68.5623 36.4444H67.4286V43.5556H68.5394C68.8463 43.553 69.1417 43.676 69.3616 43.8979C69.5816 44.1197 69.7083 44.4226 69.7143 44.7407C69.7083 45.0589 69.5816 45.3617 69.3616 45.5836C69.1417 45.8055 68.8463 45.9285 68.5394 45.9259H66.2126C66.2442 46.1427 66.2165 46.3644 66.1324 46.5656C66.0483 46.7668 65.9113 46.9394 65.7371 47.0637C65.5314 47.2059 65.3029 47.277 65.0743 47.277C64.7086 47.277 64.3657 47.1111 64.1371 46.7793L63.5543 45.9259H43.7829L43.2 46.7793C42.9714 47.1111 42.6286 47.277 42.2629 47.277C42.0343 47.277 41.8057 47.2059 41.6 47.0637C41.4258 46.9394 41.2888 46.7668 41.2048 46.5656C41.1207 46.3644 41.0929 46.1427 41.1246 45.9259H38.8891C38.5823 45.9285 38.2869 45.8055 38.067 45.5836C37.847 45.3617 37.7203 45.0589 37.7143 44.7407C37.7143 44.0913 38.2446 43.5556 38.8891 43.5556H40V36.4444H38.8891C38.5823 36.447 38.2869 36.324 38.067 36.1021C37.847 35.8803 37.7203 35.5774 37.7143 35.2593C37.7143 34.6098 38.2446 34.0741 38.8891 34.0741H49.0606L51.1634 30.9926C50.53 30.5617 50.0095 29.9745 49.6489 29.2836C49.2883 28.5927 49.0987 27.8197 49.0971 27.0341C49.0971 26.3704 49.6229 25.8489 50.24 25.8489C50.88 25.8489 51.3829 26.3704 51.3829 27.0341C51.3829 27.8874 51.824 28.6412 52.4823 29.0584L52.6766 28.7739C52.7265 28.6871 52.7872 28.6074 52.8571 28.5369C52.9629 28.4253 53.0893 28.337 53.2287 28.2771C53.3681 28.2173 53.5177 28.1871 53.6686 28.1884C53.9657 28.1861 54.2629 28.307 54.48 28.5369C54.5507 28.6073 54.6122 28.687 54.6629 28.7739L54.8549 29.0584C55.5131 28.6412 55.9543 27.8874 55.9543 27.0341C55.9543 25.7304 54.9714 24.6874 53.7143 24.6637C53.3257 24.6637 52.96 24.4504 52.7543 24.1185C52.6191 23.9348 52.5467 23.7096 52.5486 23.4785C52.5486 23.3837 52.5486 23.3126 52.5714 23.2178V15.1111H51.2229C50.0663 15.1111 49.1429 14.0587 49.1429 12.7407H35.4286V62.5185H37.1429C38.72 62.5185 40 63.8459 40 65.4815V67.2593H67.4514C69.9657 67.2593 72 69.3807 72 72H8C8 69.3807 10.0343 67.2593 12.5486 67.2593H14.8571V65.4815C14.8571 63.8459 16.1371 62.5185 17.7143 62.5185H19.4286V12.7407H14.8571C14.2509 12.7407 13.6696 12.491 13.2409 12.0465C12.8122 11.6019 12.5714 10.999 12.5714 10.3704ZM21.7143 17.4815V22.675L31.7303 17.4815H21.7143ZM23.1269 62.5185H33.1429V57.325L23.1269 62.5185ZM31.7303 55.4074H21.7143V60.6009L31.7303 55.4074ZM23.1269 24.5926H33.1429V19.3991L23.1269 24.5926ZM31.7303 26.963H21.7143V32.1564L31.7303 26.963ZM23.1269 34.0741H33.1429V28.8806L23.1269 34.0741ZM31.7303 36.4444H21.7143V41.6379L31.7303 36.4444ZM23.1269 43.5556H33.1429V38.3621L23.1269 43.5556ZM31.7303 45.9259H21.7143V51.1194L31.7303 45.9259ZM23.1269 53.037H33.1429V47.8436L23.1269 53.037ZM53.4446 31.7701L51.872 34.0741H55.4651L53.8926 31.7701C53.7433 31.7777 53.5938 31.7777 53.4446 31.7701ZM47.44 36.4444H42.2857V43.5556H42.5874L47.44 36.4444ZM45.4011 43.5556H61.936L57.0834 36.4444H50.2537L45.4011 43.5556ZM59.8949 36.4444L64.7497 43.5556H65.1429V36.4444H59.8949Z" fill="#DFBD69"/>
</svg>
