<svg width="80" height="80" viewBox="0 0 80 80" fill="none" xmlns="http://www.w3.org/2000/svg">
<rect x="1" y="1" width="78" height="78" rx="19" stroke="#DFBD69" stroke-width="2"/>
<path d="M69.9912 65.262L61.3335 56.6576V23.5553L57.2446 16.0353C56.943 15.462 56.4904 14.982 55.9358 14.6471C55.3813 14.3122 54.7458 14.1352 54.0979 14.1352C53.4501 14.1352 52.8146 14.3122 52.26 14.6471C51.7054 14.982 51.2529 15.462 50.9513 16.0353L47.1113 23.5731V42.5065L14.5957 10.1509C14.347 9.90018 14.0293 9.72919 13.6831 9.65973C13.3369 9.59027 12.9778 9.62549 12.6517 9.7609C12.3256 9.89631 12.0472 10.1258 11.852 10.42C11.6568 10.7143 11.5536 11.06 11.5557 11.4131V25.7776H15.4135V28.622H11.5557V39.9998H15.4135V42.8442H11.5557V54.6665H15.4135V57.5109H11.5557V66.5242C11.5557 66.9957 11.743 67.4479 12.0764 67.7813C12.4098 68.1147 12.862 68.302 13.3335 68.302H68.729C69.0821 68.3041 69.4279 68.2009 69.7221 68.0057C70.0164 67.8105 70.2458 67.5321 70.3812 67.206C70.5166 66.8799 70.5519 66.5208 70.4824 66.1746C70.413 65.8284 70.242 65.5107 69.9912 65.262V65.262ZM25.7779 54.222V38.1153L41.9024 54.222H25.7779ZM57.7779 57.9731H50.6668V53.6531H57.7779V57.9731ZM57.7779 50.862H50.6668V24.4442L54.1157 17.742L57.7779 24.462V50.862Z" fill="#DFBD69"/>
</svg>
