<svg width="30" height="30" viewBox="0 0 30 30" fill="none" xmlns="http://www.w3.org/2000/svg">
<g clip-path="url(#clip0_1556_63)">
<path d="M27.5 2.81264H23.4375V0.937637C23.4377 0.688996 23.3391 0.450474 23.1634 0.274541C22.9877 0.0986087 22.7493 -0.000322298 22.5006 -0.000488059C22.252 -0.000653819 22.0135 0.0979593 21.8375 0.273657C21.6616 0.449356 21.5627 0.687746 21.5625 0.936387V2.81264H15.9375V0.937637C15.9376 0.814523 15.9134 0.692598 15.8664 0.578824C15.8193 0.46505 15.7504 0.361654 15.6634 0.274541C15.5764 0.187428 15.4731 0.118304 15.3593 0.071114C15.2456 0.0239244 15.1237 -0.000405996 15.0006 -0.000488073C14.752 -0.000653833 14.5135 0.0979592 14.3375 0.273657C14.1616 0.449356 14.0627 0.687746 14.0625 0.936387V2.81264H8.4375V0.937637C8.43758 0.814523 8.41341 0.692598 8.36638 0.578824C8.31934 0.46505 8.25035 0.361654 8.16335 0.274541C8.07636 0.187428 7.97305 0.118304 7.85934 0.071114C7.74563 0.0239244 7.62374 -0.000405996 7.50063 -0.000488073C7.25198 -0.000653833 7.01346 0.0979592 6.83753 0.273657C6.6616 0.449356 6.56267 0.687746 6.5625 0.936387V2.81264H2.5C1.83718 2.81264 1.20148 3.07586 0.732675 3.54443C0.26387 4.013 0.000331412 4.64856 0 5.31139V27.4989C0 28.1619 0.263392 28.7978 0.732233 29.2667C1.20107 29.7355 1.83696 29.9989 2.5 29.9989H27.5C28.163 29.9989 28.7989 29.7355 29.2678 29.2667C29.7366 28.7978 30 28.1619 30 27.4989V5.31139C29.9997 4.64856 29.7361 4.013 29.2673 3.54443C28.7985 3.07586 28.1628 2.81264 27.5 2.81264ZM28.125 27.5001C28.125 27.6657 28.0593 27.8245 27.9424 27.9416C27.8254 28.0588 27.6668 28.1248 27.5012 28.1251H2.5C2.33424 28.1251 2.17527 28.0593 2.05806 27.9421C1.94085 27.8249 1.875 27.6659 1.875 27.5001V5.31264C1.87533 5.14709 1.94133 4.98844 2.0585 4.8715C2.17567 4.75456 2.33446 4.68889 2.5 4.68889H6.5625V6.56389C6.56233 6.81253 6.66095 7.05105 6.83665 7.22698C7.01234 7.40292 7.25073 7.50185 7.49937 7.50201C7.74802 7.50218 7.98654 7.40356 8.16247 7.22787C8.3384 7.05217 8.43733 6.81378 8.4375 6.56514V4.68889H14.0625V6.56389C14.0623 6.81253 14.1609 7.05105 14.3366 7.22698C14.5123 7.40292 14.7507 7.50185 14.9994 7.50201C15.248 7.50218 15.4865 7.40356 15.6625 7.22787C15.8384 7.05217 15.9373 6.81378 15.9375 6.56514V4.68889H21.5625V6.56389C21.5623 6.81253 21.6609 7.05105 21.8366 7.22698C22.0123 7.40292 22.2507 7.50185 22.4994 7.50201C22.748 7.50218 22.9865 7.40356 23.1625 7.22787C23.3384 7.05217 23.4373 6.81378 23.4375 6.56514V4.68889H27.5C27.6653 4.68922 27.8238 4.75504 27.9407 4.87194C28.0576 4.98885 28.1234 5.14731 28.1238 5.31264L28.125 27.5001Z" fill="black"/>
<path d="M6.5625 11.25H10.3125V14.0625H6.5625V11.25ZM6.5625 15.9375H10.3125V18.75H6.5625V15.9375ZM6.5625 20.625H10.3125V23.4375H6.5625V20.625ZM13.125 20.625H16.875V23.4375H13.125V20.625ZM13.125 15.9375H16.875V18.75H13.125V15.9375ZM13.125 11.25H16.875V14.0625H13.125V11.25ZM19.6875 20.625H23.4375V23.4375H19.6875V20.625ZM19.6875 15.9375H23.4375V18.75H19.6875V15.9375ZM19.6875 11.25H23.4375V14.0625H19.6875V11.25Z" fill="black"/>
</g>
<defs>
<clipPath id="clip0_1556_63">
<rect width="30" height="30" fill="white"/>
</clipPath>
</defs>
</svg>
