<svg width="50" height="50" viewBox="0 0 50 50" fill="none" xmlns="http://www.w3.org/2000/svg">
<path d="M18.75 0C18.1975 0 17.6676 0.202609 17.2769 0.563256C16.8862 0.923903 16.6667 1.41305 16.6667 1.92308V3.84615H13.8292C11.8035 3.84573 9.84693 4.52643 8.32547 5.76097C6.80401 6.99551 5.82179 8.69934 5.5625 10.5538L4.8875 15.3846H2.08333C1.5308 15.3846 1.0009 15.5872 0.610195 15.9479C0.219494 16.3085 6.82508e-08 16.7977 6.82508e-08 17.3077C6.82508e-08 17.8177 0.219494 18.3069 0.610195 18.6675C1.0009 19.0282 1.5308 19.2308 2.08333 19.2308H4.35L4.30833 19.5154C3.05538 19.8934 1.96399 20.6274 1.19019 21.6125C0.416388 22.5975 -0.00019468 23.7832 6.82508e-08 25V36.5385C6.82508e-08 38.0686 0.658481 39.536 1.83058 40.6179C3.00269 41.6999 4.5924 42.3077 6.25 42.3077H43.75C45.4076 42.3077 46.9973 41.6999 48.1694 40.6179C49.3415 39.536 50 38.0686 50 36.5385V25C50.0002 23.779 49.5808 22.5895 48.8022 21.6025C48.0235 20.6156 46.9256 19.8821 45.6667 19.5077L45.6292 19.2308H47.9167C48.4692 19.2308 48.9991 19.0282 49.3898 18.6675C49.7805 18.3069 50 17.8177 50 17.3077C50 16.7977 49.7805 16.3085 49.3898 15.9479C48.9991 15.5872 48.4692 15.3846 47.9167 15.3846H45.0958L44.4292 10.5654C44.1728 8.70944 43.1924 7.00337 41.6715 5.76657C40.1506 4.52977 38.1936 3.84703 36.1667 3.84615H33.3333V1.92308C33.3333 1.41305 33.1138 0.923903 32.7231 0.563256C32.3324 0.202609 31.8025 0 31.25 0H18.75ZM36.1667 7.69231C37.1794 7.69315 38.1572 8.03446 38.9172 8.65243C39.6771 9.27039 40.1672 10.1227 40.2958 11.05L41.4292 19.2308H8.55417L9.69583 11.0462C9.82548 10.1189 10.3166 9.26698 11.0773 8.64972C11.838 8.03245 12.8163 7.6921 13.8292 7.69231H36.1625H36.1667ZM10.425 30.7692C10.425 30.3909 10.5057 30.0163 10.6626 29.6668C10.8194 29.3173 11.0493 28.9997 11.3391 28.7322C11.6289 28.4647 11.9729 28.2525 12.3515 28.1077C12.7302 27.963 13.136 27.8885 13.5458 27.8885C13.9557 27.8885 14.3615 27.963 14.7401 28.1077C15.1188 28.2525 15.4628 28.4647 15.7526 28.7322C16.0424 28.9997 16.2723 29.3173 16.4291 29.6668C16.5859 30.0163 16.6667 30.3909 16.6667 30.7692C16.6667 31.5333 16.3379 32.266 15.7526 32.8062C15.1673 33.3465 14.3735 33.65 13.5458 33.65C12.7181 33.65 11.9243 33.3465 11.3391 32.8062C10.7538 32.266 10.425 31.5333 10.425 30.7692ZM33.3333 30.7692C33.3333 30.0052 33.6621 29.2725 34.2474 28.7322C34.8327 28.192 35.6265 27.8885 36.4542 27.8885C37.2819 27.8885 38.0757 28.192 38.6609 28.7322C39.2462 29.2725 39.575 30.0052 39.575 30.7692C39.575 31.5333 39.2462 32.266 38.6609 32.8062C38.0757 33.3465 37.2819 33.65 36.4542 33.65C35.6265 33.65 34.8327 33.3465 34.2474 32.8062C33.6621 32.266 33.3333 31.5333 33.3333 30.7692ZM37.4875 46.1538H43.7375V47.1154C43.7375 47.8804 43.4083 48.6141 42.8222 49.1551C42.2362 49.6961 41.4413 50 40.6125 50C39.7837 50 38.9888 49.6961 38.4028 49.1551C37.8167 48.6141 37.4875 47.8804 37.4875 47.1154V46.1538ZM6.25 46.1538H12.5V47.1154C12.5 47.8804 12.1708 48.6141 11.5847 49.1551C10.9987 49.6961 10.2038 50 9.375 50C8.5462 50 7.75134 49.6961 7.16529 49.1551C6.57924 48.6141 6.25 47.8804 6.25 47.1154V46.1538Z" fill="url(#paint0_linear_1515_188)"/>
<defs>
<linearGradient id="paint0_linear_1515_188" x1="25" y1="0" x2="25" y2="50" gradientUnits="userSpaceOnUse">
<stop stop-color="#B88746"/>
<stop offset="1" stop-color="#DFBD69"/>
</linearGradient>
</defs>
</svg>
