<svg width="115" height="50" viewBox="0 0 115 50" fill="none" xmlns="http://www.w3.org/2000/svg">
<path fill-rule="evenodd" clip-rule="evenodd" d="M25 10.7143C17.2429 10.7143 10.7143 17.2429 10.7143 25C10.7143 32.7571 17.2429 39.2857 25 39.2857C28.75 39.2857 33.0143 37.5429 38.0357 34.0929C41.6786 31.5929 45.3571 28.45 49.1857 25C45.3571 21.55 41.6714 18.4143 38.0429 15.9071C33.0071 12.4571 28.75 10.7143 25 10.7143ZM57.1429 17.7429C52.9286 13.9357 48.5429 10.1286 44.1071 7.07857C38.4143 3.16429 31.9643 0 25 0C11.3286 0 0 11.3286 0 25C0 38.6714 11.3286 50 25 50C31.9643 50 38.4143 46.8286 44.1071 42.9214C48.5429 39.8714 52.9286 36.0643 57.1429 32.2571C61.3571 36.0643 65.7429 39.8714 70.1786 42.9214C75.8714 46.8286 82.3214 50 89.2857 50C102.957 50 114.286 38.6714 114.286 25C114.286 11.3286 102.957 0 89.2857 0C82.3214 0 75.8714 3.16429 70.1786 7.07857C65.7429 10.1286 61.3571 13.9357 57.1429 17.7429V17.7429ZM65.1 25C68.9286 28.45 72.6143 31.5857 76.2429 34.0929C81.2714 37.5429 85.5286 39.2857 89.2857 39.2857C97.0429 39.2857 103.571 32.7571 103.571 25C103.571 17.2429 97.0429 10.7143 89.2857 10.7143C85.5357 10.7143 81.2714 12.4571 76.25 15.9071C72.6071 18.4071 68.9286 21.55 65.1 25V25Z" fill="#1F4973"/>
</svg>
