<svg width="80" height="80" viewBox="0 0 80 80" fill="none" xmlns="http://www.w3.org/2000/svg">
<rect x="1" y="1" width="78" height="78" rx="19" stroke="#B88746" stroke-width="2"/>
<path d="M65 22.8125C65 24.5703 63.6035 26.1914 61.25 27.5C58.4082 29.0723 54.1699 30.1855 49.3066 30.5176C48.9453 30.3418 48.584 30.1758 48.2031 30.0293C44.3555 28.418 39.2383 27.5 33.75 27.5C32.9395 27.5 32.1484 27.5195 31.3574 27.5586L31.25 27.5C28.8965 26.1914 27.5 24.5703 27.5 22.8125C27.5 18.4961 35.8984 15 46.25 15C56.6016 15 65 18.4961 65 22.8125ZM30.6934 30.7324C31.6895 30.6641 32.7148 30.625 33.75 30.625C39.8242 30.625 45.2148 31.8262 48.6426 33.6914C51.0645 35.0098 52.5 36.6504 52.5 38.4375C52.5 38.8281 52.4316 39.209 52.2949 39.5801C51.8457 40.8691 50.6348 42.0508 48.877 43.0469C48.8672 43.0566 48.8477 43.0566 48.8379 43.0664C48.8086 43.0859 48.7793 43.0957 48.75 43.1152C45.332 45.0098 39.8828 46.2402 33.75 46.2402C27.9297 46.2402 22.7246 45.1367 19.2773 43.3984C19.0918 43.3105 18.916 43.2129 18.7402 43.1152C16.3965 41.8164 15 40.1953 15 38.4375C15 35.0391 20.2148 32.1387 27.5 31.0742C28.5254 30.9277 29.5898 30.8105 30.6934 30.7324ZM55.625 38.4375C55.625 36.2988 54.5898 34.541 53.2715 33.2227C56.0352 32.793 58.5645 32.1094 60.7129 31.2207C62.3047 30.5566 63.7891 29.7363 65 28.7305V32.1875C65 34.0723 63.3887 35.8105 60.7227 37.1582C59.2969 37.8809 57.5586 38.4961 55.6055 38.9648C55.6152 38.7891 55.625 38.623 55.625 38.4473V38.4375ZM52.5 47.8125C52.5 49.5703 51.1035 51.1914 48.75 52.5C48.5742 52.5977 48.3984 52.6855 48.2129 52.7832C44.7754 54.5215 39.5703 55.625 33.75 55.625C27.6172 55.625 22.168 54.3945 18.75 52.5C16.3965 51.1914 15 49.5703 15 47.8125V44.3555C16.2207 45.3613 17.6953 46.1816 19.2871 46.8457C23.1445 48.457 28.2617 49.375 33.75 49.375C39.2383 49.375 44.3555 48.457 48.2129 46.8457C48.9746 46.5332 49.707 46.1719 50.4004 45.7813C50.9961 45.4492 51.5527 45.0781 52.0801 44.6875C52.2266 44.5801 52.3633 44.4629 52.5 44.3555V47.8125ZM55.625 47.8125V42.1582C57.4805 41.748 59.1895 41.2305 60.7129 40.5957C62.3047 39.9316 63.7891 39.1113 65 38.1055V41.5625C65 42.5879 64.5117 43.6133 63.5449 44.5801C61.9531 46.1719 59.1504 47.4805 55.6055 48.3301C55.6152 48.1641 55.625 47.9883 55.625 47.8125ZM33.75 58.75C39.2383 58.75 44.3555 57.832 48.2129 56.2207C49.8047 55.5566 51.2891 54.7363 52.5 53.7305V57.1875C52.5 61.5039 44.1016 65 33.75 65C23.3984 65 15 61.5039 15 57.1875V53.7305C16.2207 54.7363 17.6953 55.5566 19.2871 56.2207C23.1445 57.832 28.2617 58.75 33.75 58.75Z" fill="#DFBD69"/>
</svg>
