<svg width="80" height="80" viewBox="0 0 80 80" fill="none" xmlns="http://www.w3.org/2000/svg">
<rect x="1" y="1" width="78" height="78" rx="19" stroke="#B88746" stroke-width="2"/>
<path d="M49.5694 51.1111H60.4861C59.5694 39.0138 54.3611 31.4999 47.6805 27.0555L50.7222 20.4166C50.8142 20.206 50.8524 19.9758 50.8335 19.7467C50.8145 19.5176 50.7391 19.2968 50.6138 19.1041C50.4885 18.9114 50.3174 18.7528 50.1157 18.6425C49.9141 18.5322 49.6882 18.4737 49.4583 18.4722H30.4167C30.1868 18.4737 29.9609 18.5322 29.7593 18.6425C29.5576 18.7528 29.3865 18.9114 29.2612 19.1041C29.1359 19.2968 29.0604 19.5176 29.0415 19.7467C29.0226 19.9758 29.0608 20.206 29.1528 20.4166L30.8194 24.0277H44.875L43.625 26.8055H41.0555C41.8403 28.9156 42.4171 31.0972 42.7778 33.3194C43.0114 34.6978 43.1598 36.0894 43.2222 37.4861L41.0278 39.0277C41.0337 37.2312 40.885 35.4376 40.5833 33.6666C40.1995 31.3096 39.5375 29.0065 38.6111 26.8055H37.2222C35.9405 28.425 34.7887 30.1433 33.7778 31.9444C32.9626 33.4893 32.2707 35.0962 31.7083 36.7499L29.8055 35.4861C30.361 33.8877 31.0437 32.3364 31.8472 30.8472C32.6591 29.4507 33.5494 28.1013 34.5139 26.8055H32.0833L32.1944 27.0416C24.8333 31.9444 19.2361 40.5555 19.2361 54.9305C19.2173 55.2327 19.2586 55.5356 19.3576 55.8217C19.4566 56.1078 19.6112 56.3715 19.8127 56.5975C20.0142 56.8235 20.2584 57.0073 20.5313 57.1384C20.8042 57.2694 21.1004 57.3451 21.4028 57.3611H32.5139C32.0368 56.8645 31.7074 56.2449 31.5625 55.5717C31.4177 54.8985 31.4632 54.1983 31.6939 53.5494C31.9246 52.9006 32.3313 52.3288 32.8687 51.8982C33.406 51.4675 34.0526 51.195 34.7361 51.1111C34.4035 50.5469 34.2262 49.9048 34.2222 49.2499C34.2222 48.2554 34.6173 47.3016 35.3206 46.5983C36.0238 45.895 36.9776 45.4999 37.9722 45.4999H46.3055C47.3001 45.4999 48.2539 45.895 48.9572 46.5983C49.6605 47.3016 50.0555 48.2554 50.0555 49.2499C50.0627 49.9026 49.8948 50.5453 49.5694 51.1111Z" fill="#DFBD69"/>
<path d="M45 54.5832C45 54.2149 44.8537 53.8616 44.5932 53.6011C44.3328 53.3407 43.9795 53.1943 43.6111 53.1943H35.2778C34.9094 53.1943 34.5562 53.3407 34.2957 53.6011C34.0352 53.8616 33.8889 54.2149 33.8889 54.5832C33.8889 54.9516 34.0352 55.3049 34.2957 55.5653C34.5562 55.8258 34.9094 55.9721 35.2778 55.9721H43.6111C43.9795 55.9721 44.3328 55.8258 44.5932 55.5653C44.8537 55.3049 45 54.9516 45 54.5832Z" fill="#DFBD69"/>
<path d="M46.3056 47.6389H37.9723C37.6039 47.6389 37.2506 47.7852 36.9902 48.0457C36.7297 48.3062 36.5834 48.6594 36.5834 49.0278C36.5834 49.3962 36.7297 49.7494 36.9902 50.0099C37.2506 50.2704 37.6039 50.4167 37.9723 50.4167H46.3056C46.674 50.4167 47.0272 50.2704 47.2877 50.0099C47.5482 49.7494 47.6945 49.3962 47.6945 49.0278C47.6945 48.6594 47.5482 48.3062 47.2877 48.0457C47.0272 47.7852 46.674 47.6389 46.3056 47.6389Z" fill="#DFBD69"/>
<path d="M45.5555 58.75H37.2222C36.8538 58.75 36.5006 58.8963 36.2401 59.1568C35.9796 59.4173 35.8333 59.7705 35.8333 60.1389C35.8333 60.5072 35.9796 60.8605 36.2401 61.121C36.5006 61.3814 36.8538 61.5278 37.2222 61.5278H45.5555C45.9239 61.5278 46.2772 61.3814 46.5376 61.121C46.7981 60.8605 46.9444 60.5072 46.9444 60.1389C46.9444 59.7705 46.7981 59.4173 46.5376 59.1568C46.2772 58.8963 45.9239 58.75 45.5555 58.75Z" fill="#DFBD69"/>
<path d="M60.4167 58.75H50.6944C50.3261 58.75 49.9728 58.8963 49.7123 59.1568C49.4519 59.4173 49.3055 59.7705 49.3055 60.1389C49.3055 60.5072 49.4519 60.8605 49.7123 61.121C49.9728 61.3814 50.3261 61.5278 50.6944 61.5278H60.4167C60.785 61.5278 61.1383 61.3814 61.3987 61.121C61.6592 60.8605 61.8055 60.5072 61.8055 60.1389C61.8055 59.7705 61.6592 59.4173 61.3987 59.1568C61.1383 58.8963 60.785 58.75 60.4167 58.75Z" fill="#DFBD69"/>
<path d="M61.8056 53.1943H52.0833C51.715 53.1943 51.3617 53.3407 51.1013 53.6011C50.8408 53.8616 50.6945 54.2149 50.6945 54.5832C50.6945 54.9516 50.8408 55.3049 51.1013 55.5653C51.3617 55.8258 51.715 55.9721 52.0833 55.9721H61.8056C62.1739 55.9721 62.5272 55.8258 62.7877 55.5653C63.0481 55.3049 63.1945 54.9516 63.1945 54.5832C63.1945 54.2149 63.0481 53.8616 62.7877 53.6011C62.5272 53.3407 62.1739 53.1943 61.8056 53.1943Z" fill="#DFBD69"/>
</svg>
