<svg width="50" height="50" viewBox="0 0 50 50" fill="none" xmlns="http://www.w3.org/2000/svg">
<path d="M32.5 18.75H33.75M12.5 23.75L13.4875 26.98C13.6438 27.4921 13.9604 27.9404 14.3907 28.259C14.8209 28.5777 15.3421 28.7498 15.8775 28.75H17.5M37.5 23.75L36.5125 26.98C36.3562 27.4921 36.0396 27.9404 35.6093 28.259C35.1791 28.5777 34.6579 28.7498 34.1225 28.75H32.5M21.875 28.125C21.875 28.125 21.875 36.875 17.5 36.875M28.125 28.125C28.125 28.125 28.125 36.875 32.5 36.875M25 28.125V36.875M37.5 14.5V23.75H12.5V14.5C12.5 14.3011 12.579 14.1103 12.7197 13.9697C12.8603 13.829 13.0511 13.75 13.25 13.75H36.75C36.9489 13.75 37.1397 13.829 37.2803 13.9697C37.421 14.1103 37.5 14.3011 37.5 14.5V14.5Z" stroke="#B88746" stroke-width="1.5" stroke-linecap="round" stroke-linejoin="round"/>
<rect x="1" y="1" width="48" height="48" rx="9" stroke="#DFBD69" stroke-width="2"/>
</svg>
