<svg width="50" height="50" viewBox="0 0 50 50" fill="none" xmlns="http://www.w3.org/2000/svg">
<path d="M18.4375 15H31.5625C32.4379 15 33.2803 15.3339 33.9179 15.9336C34.5555 16.5334 34.9403 17.3538 34.9938 18.2275L35 18.4375V22.63C35.6814 22.8234 36.2864 23.2224 36.7325 23.7726C37.1786 24.3227 37.444 24.9971 37.4925 25.7037L37.5 25.9375V35.3125C37.4999 35.55 37.4097 35.7787 37.2475 35.9522C37.0854 36.1258 36.8634 36.2313 36.6264 36.2475C36.3894 36.2637 36.1551 36.1894 35.9709 36.0395C35.7866 35.8896 35.6661 35.6753 35.6338 35.44L35.625 35.3125V32.5H14.375V35.3125C14.375 35.539 14.2929 35.7579 14.144 35.9287C13.9951 36.0994 13.7894 36.2104 13.565 36.2412L13.4375 36.25C13.211 36.25 12.9921 36.1679 12.8213 36.019C12.6506 35.8701 12.5396 35.6644 12.5087 35.44L12.5 35.3125V25.9375C12.5 24.3638 13.5575 23.0375 15 22.6287V18.4375C15 17.5621 15.3339 16.7197 15.9336 16.0821C16.5334 15.4445 17.3538 15.0597 18.2275 15.0063L18.4375 15ZM34.0625 24.375H15.9375C15.5507 24.3748 15.1775 24.5181 14.8903 24.7772C14.603 25.0363 14.4221 25.3927 14.3825 25.7775L14.375 25.9375V30.625H35.625V25.9375C35.6249 25.5509 35.4814 25.1781 35.2224 24.8911C34.9633 24.6041 34.6071 24.4233 34.2225 24.3837L34.0625 24.375ZM31.5625 16.875H18.4375C18.0507 16.8748 17.6775 17.0181 17.3903 17.2772C17.103 17.5363 16.9221 17.8927 16.8825 18.2775L16.875 18.4375V22.5H18.75C18.75 22.1685 18.8817 21.8505 19.1161 21.6161C19.3505 21.3817 19.6685 21.25 20 21.25H22.5C22.8062 21.25 23.1017 21.3624 23.3305 21.5659C23.5593 21.7693 23.7054 22.0497 23.7413 22.3538L23.75 22.5H26.25C26.25 22.1685 26.3817 21.8505 26.6161 21.6161C26.8505 21.3817 27.1685 21.25 27.5 21.25H30C30.3062 21.25 30.6017 21.3624 30.8305 21.5659C31.0593 21.7693 31.2054 22.0497 31.2412 22.3538L31.25 22.5H33.125V18.4375C33.1252 18.0507 32.9819 17.6775 32.7228 17.3903C32.4637 17.103 32.1073 16.9221 31.7225 16.8825L31.5625 16.875Z" fill="#B88746"/>
<rect x="1" y="1" width="48" height="48" rx="9" stroke="#DFBD69" stroke-width="2"/>
</svg>
