<svg width="80" height="80" viewBox="0 0 80 80" fill="none" xmlns="http://www.w3.org/2000/svg">
<rect x="1" y="1" width="78" height="78" rx="9" stroke="#DFBD69" stroke-width="2"/>
<path d="M56.6951 28.6545L26.0473 15.2118C25.434 14.944 24.7392 14.9296 24.1153 15.1718C23.807 15.2935 23.5259 15.4748 23.2882 15.7052C23.0505 15.9356 22.8609 16.2106 22.7303 16.5144L15.2032 34.0146C14.9411 34.6239 14.9326 35.3121 15.1797 35.9277C15.4267 36.5432 15.909 37.0358 16.5205 37.2971L33.9758 44.7497L30.8646 52.4998H20.0181V44.9997H15V65H20.0181V57.4999H30.8646C32.9295 57.4999 34.7586 56.2649 35.5214 54.3549L38.5874 46.7198L47.1658 50.3823C47.7746 50.643 48.4621 50.6531 49.0784 50.4105C49.6947 50.1679 50.1896 49.6922 50.4551 49.0873L57.9822 31.9446C58.2486 31.3381 58.2626 30.6512 58.0213 30.0344C57.78 29.4176 57.3031 28.9214 56.6951 28.6545ZM59.987 50.9298L55.3252 49.0748L60.3382 36.5746L65 38.4272L59.987 50.9298Z" fill="#B88746"/>
</svg>
