<svg width="50" height="50" viewBox="0 0 50 50" fill="none" xmlns="http://www.w3.org/2000/svg">
<path d="M33.75 15V33.75C33.75 35.1375 32.6375 36.25 31.25 36.25V37.5H28.75V36.25H25.625V12.5H31.25C31.913 12.5 32.5489 12.7634 33.0178 13.2322C33.4866 13.7011 33.75 14.337 33.75 15ZM18.75 12.5H24.375V36.25H21.25V37.5H18.75V36.25C18.087 36.25 17.4511 35.9866 16.9822 35.5178C16.5134 35.0489 16.25 34.413 16.25 33.75V15C16.25 13.625 17.375 12.5 18.75 12.5ZM22.5 22.5H18.75V27.5H22.5V22.5Z" fill="#B88746"/>
<rect x="1" y="1" width="48" height="48" rx="9" stroke="#DFBD69" stroke-width="2"/>
</svg>
