<svg width="50" height="50" viewBox="0 0 50 50" fill="none" xmlns="http://www.w3.org/2000/svg">
<path d="M17.5 35L19.375 30.3125C19.5625 29.8333 19.8646 29.4529 20.2813 29.1712C20.6979 28.8904 21.1667 28.75 21.6875 28.75H23.75V23.7188C20.5625 23.6146 17.8908 23.1458 15.735 22.3125C13.5783 21.4792 12.5 20.5 12.5 19.375C12.5 18.1667 13.7188 17.1354 16.1563 16.2813C18.5938 15.4271 21.5417 15 25 15C28.4792 15 31.4321 15.4271 33.8587 16.2813C36.2862 17.1354 37.5 18.1667 37.5 19.375C37.5 20.5 36.4221 21.4792 34.2663 22.3125C32.1096 23.1458 29.4375 23.6146 26.25 23.7188V28.75H28.3125C28.8125 28.75 29.2762 28.8904 29.7037 29.1712C30.1304 29.4529 30.4375 29.8333 30.625 30.3125L32.5 35H30L28.5 31.25H21.5L20 35H17.5Z" fill="#B88746"/>
<rect x="1" y="1" width="48" height="48" rx="9" stroke="#DFBD69" stroke-width="2"/>
</svg>
