<svg width="50" height="50" viewBox="0 0 50 50" fill="none" xmlns="http://www.w3.org/2000/svg">
<circle cx="25" cy="25" r="25" fill="url(#paint0_linear_1866_532)"/>
<path d="M38.5 19C38.197 19 31.225 19.0435 25 22.012C18.775 19.0435 11.803 19 11.5 19C11.1022 19 10.7206 19.158 10.4393 19.4393C10.158 19.7206 10 20.1022 10 20.5V35.3245C10 35.5258 10.0405 35.725 10.1191 35.9103C10.1977 36.0955 10.3128 36.2631 10.4575 36.403C10.75 36.685 11.1775 36.8605 11.551 36.823L11.7415 36.8215C12.766 36.8215 18.1855 36.9685 24.3655 39.859C24.3895 39.871 24.4165 39.8665 24.4405 39.8755C24.619 39.949 24.8065 40 25 40C25.1935 40 25.381 39.949 25.561 39.8755C25.585 39.8665 25.612 39.871 25.636 39.859C31.816 36.967 37.2355 36.8215 38.26 36.8215L38.4505 36.823C38.8075 36.8605 39.25 36.685 39.544 36.403C39.835 36.1195 40 35.7295 40 35.3245V20.5C40 20.1022 39.842 19.7206 39.5607 19.4393C39.2794 19.158 38.8978 19 38.5 19ZM13 22.0735C15.2275 22.24 19.5715 22.7935 23.5 24.6115V36.2245C19 34.462 15.115 33.9835 13 33.8605V22.0735ZM37 33.8605C34.885 33.9835 31 34.462 26.5 36.2245V24.6115C30.4285 22.7935 34.7725 22.24 37 22.0735V33.8605Z" fill="white"/>
<path d="M25 19C27.4853 19 29.5 16.9853 29.5 14.5C29.5 12.0147 27.4853 10 25 10C22.5147 10 20.5 12.0147 20.5 14.5C20.5 16.9853 22.5147 19 25 19Z" fill="white"/>
<defs>
<linearGradient id="paint0_linear_1866_532" x1="25" y1="0" x2="25" y2="50" gradientUnits="userSpaceOnUse">
<stop stop-color="#B88746"/>
<stop offset="1" stop-color="#DFBD69"/>
</linearGradient>
</defs>
</svg>
