<svg width="50" height="50" viewBox="0 0 50 50" fill="none" xmlns="http://www.w3.org/2000/svg">
<rect x="1" y="1" width="48" height="48" rx="9" stroke="#DFBD69" stroke-width="2"/>
<path d="M15.275 12.5C14.539 12.5 13.8332 12.7924 13.3128 13.3128C12.7924 13.8332 12.5 14.539 12.5 15.275V34.725C12.5 36.25 13.75 37.5 15.275 37.5H34.725C35.461 37.5 36.1668 37.2076 36.6872 36.6872C37.2076 36.1668 37.5 35.461 37.5 34.725V15.275C37.5 13.75 36.25 12.5 34.725 12.5H15.275ZM23.75 15.0875V17.5H26.25V15.0875C28.665 15.3918 30.8862 16.5664 32.497 18.3913C34.1078 20.2161 34.9978 22.5659 35 25C34.9978 27.4341 34.1078 29.7839 32.497 31.6087C30.8862 33.4336 28.665 34.6082 26.25 34.9125V32.5H23.75V34.9125C21.335 34.6082 19.1138 33.4336 17.503 31.6087C15.8922 29.7839 15.0022 27.4341 15 25C15.0022 22.5659 15.8922 20.2161 17.503 18.3913C19.1138 16.5664 21.335 15.3918 23.75 15.0875ZM19.375 23.125C18.8777 23.125 18.4008 23.3225 18.0492 23.6742C17.6975 24.0258 17.5 24.5027 17.5 25C17.5 26.0375 18.325 26.875 19.375 26.875C19.8723 26.875 20.3492 26.6775 20.7008 26.3258C21.0525 25.9742 21.25 25.4973 21.25 25C21.25 24.5027 21.0525 24.0258 20.7008 23.6742C20.3492 23.3225 19.8723 23.125 19.375 23.125ZM30.625 23.125C30.1277 23.125 29.6508 23.3225 29.2992 23.6742C28.9475 24.0258 28.75 24.5027 28.75 25C28.75 25.4973 28.9475 25.9742 29.2992 26.3258C29.6508 26.6775 30.1277 26.875 30.625 26.875C31.1223 26.875 31.5992 26.6775 31.9508 26.3258C32.3025 25.9742 32.5 25.4973 32.5 25C32.5 24.5027 32.3025 24.0258 31.9508 23.6742C31.5992 23.3225 31.1223 23.125 30.625 23.125Z" fill="#B88746"/>
</svg>
