<svg width="50" height="50" viewBox="0 0 50 50" fill="none" xmlns="http://www.w3.org/2000/svg">
<circle cx="25" cy="25" r="25" fill="url(#paint0_linear_1866_520)"/>
<path d="M19 28H21V30H19V28ZM24 28H26V30H24V28ZM29 28H31V30H29V28Z" fill="white"/>
<path d="M36.5 38V14.5H32V10H18V14.5H13.5V38H10V40H40V38H36.5ZM20 12H30V22H20V12ZM34.5 38H26V34H24V38H15.5V16.5H18V24H32V16.5H34.5V38Z" fill="white"/>
<path d="M26 14H24V16H22V18H24V20H26V18H28V16H26V14Z" fill="white"/>
<defs>
<linearGradient id="paint0_linear_1866_520" x1="25" y1="0" x2="25" y2="50" gradientUnits="userSpaceOnUse">
<stop stop-color="#B88746"/>
<stop offset="1" stop-color="#DFBD69"/>
</linearGradient>
</defs>
</svg>
