<svg width="80" height="80" viewBox="0 0 80 80" fill="none" xmlns="http://www.w3.org/2000/svg">
<path d="M58.48 38.4028L42.4444 31.1036V27.504C42.4444 26.1291 41.3444 25.0043 40 25.0043C38.6556 25.0043 37.5556 23.8794 37.5556 22.5045C37.5556 21.1297 38.6556 20.0048 40 20.0048C41.3444 20.0048 42.4444 21.1297 42.4444 22.5045H47.3333C47.3333 17.905 43.2756 14.2554 38.6311 15.1303C35.7467 15.6803 33.3756 18.055 32.8133 21.0047C32.08 24.9043 34.28 28.3539 37.5556 29.5538V31.1286L21.52 38.4278C19.3689 39.3777 18 41.5525 18 43.9272V43.9522C18 47.3019 20.64 50.0016 23.9156 50.0016H27.7778V65H52.2222V50.0016H56.0844C59.36 50.0016 62 47.3019 62 43.9522V43.9272C62 41.5525 60.6311 39.3777 58.48 38.4028ZM56.0844 45.0021H52.2222V42.5024H27.7778V45.0021H23.9156C23.3533 45.0021 22.8889 44.5272 22.8889 43.9272C22.8889 43.5023 23.1333 43.1273 23.5 42.9773L40 35.4781L56.5 42.9773C56.7169 43.0752 56.8943 43.2463 57.0025 43.4619C57.1107 43.6776 57.1432 43.9247 57.0945 44.1619C57.0458 44.3992 56.9189 44.6121 56.7351 44.765C56.5512 44.918 56.3215 45.0017 56.0844 45.0021Z" fill="#B88746"/>
<rect x="1" y="1" width="78" height="78" rx="9" stroke="#DFBD69" stroke-width="2"/>
</svg>
