<svg width="80" height="80" viewBox="0 0 80 80" fill="none" xmlns="http://www.w3.org/2000/svg">
<path d="M19 25.6383V61.5319C19 63.0957 20.3322 65 21.9723 65H57.7455C59.3814 65 61 63.0957 61 61.5319V25.6383H19ZM39.9569 54.1234C33.6462 54.1234 28.5297 49.2362 28.5297 43.2053C28.5297 37.1745 33.6462 32.2872 39.9569 32.2872C46.2677 32.2872 51.3842 37.1745 51.3842 43.2053C51.3842 49.2372 46.2677 54.1234 39.9569 54.1234ZM57.7455 15H21.9723C20.3322 15 19 16.0989 19 17.6649V23.5106H61V17.6649C61 16.0989 59.3814 15 57.7455 15ZM33 21.383H21.1538V17.1277H33V21.383ZM53.6188 21.0851C52.2737 21.0851 51.1871 20.0436 51.1871 18.7574C51.1871 17.4734 52.2737 16.4319 53.6188 16.4319C54.9638 16.4319 56.0537 17.4734 56.0537 18.7574C56.0526 20.0426 54.9638 21.0851 53.6188 21.0851Z" fill="#B88746"/>
<rect x="1" y="1" width="78" height="78" rx="9" stroke="#DFBD69" stroke-width="2"/>
</svg>
