<svg width="80" height="80" viewBox="0 0 80 80" fill="none" xmlns="http://www.w3.org/2000/svg">
<rect x="1" y="1" width="78" height="78" rx="9" stroke="#DFBD69" stroke-width="2"/>
<path d="M41.2071 15C41.2071 15 39.8919 15.7021 38.5781 16.7361C37.9213 17.253 37.2564 17.8528 36.7307 18.5436C36.2051 19.2342 35.7767 20.0544 35.8418 21.0134C35.9143 22.0791 36.6049 22.8729 37.3416 23.3488C38.0782 23.8245 38.9147 24.1124 39.7025 24.3964C40.4903 24.6804 41.2297 24.9604 41.6987 25.2635C42.1678 25.5664 42.3128 25.7627 42.3363 26.1088C42.339 26.1481 42.2939 26.3578 42.0711 26.6505C41.8484 26.9432 41.4901 27.28 41.1152 27.5751C40.3655 28.165 39.5834 28.5878 39.5834 28.5878L40.4166 30.288C40.4166 30.288 41.3122 29.8109 42.2133 29.1018C42.6639 28.7473 43.1242 28.3346 43.5001 27.8407C43.8761 27.3466 44.2097 26.7324 44.1582 25.9731C44.0857 24.9073 43.3951 24.1136 42.6584 23.6377C41.9218 23.1618 41.0853 22.874 40.2975 22.5901C39.5097 22.3061 38.7703 22.0261 38.3013 21.723C37.8322 21.4199 37.6872 21.2238 37.6637 20.8777C37.6475 20.6386 37.7872 20.2229 38.1595 19.7337C38.5319 19.2443 39.0949 18.72 39.6762 18.2626C40.8385 17.3478 42.0402 16.7002 42.0402 16.7002L41.2071 15ZM28.2181 20.0954C28.2181 20.0954 26.903 20.7975 25.5892 21.8315C24.9323 22.3485 24.2674 22.9482 23.7418 23.639C23.2161 24.3296 22.7877 25.1498 22.8528 26.1088C22.9253 27.1746 23.6159 27.9683 24.3527 28.4442C25.0893 28.92 25.9257 29.2079 26.7135 29.4918C27.5014 29.7758 28.2407 30.0558 28.7098 30.3589C29.1789 30.6619 29.3239 30.8582 29.3473 31.2042C29.3501 31.2435 29.3049 31.4533 29.0822 31.7459C28.8594 32.0386 28.5011 32.3754 28.1263 32.6705C27.3766 33.2604 26.5945 33.6833 26.5945 33.6833L27.4276 35.3834C27.4276 35.3834 28.3232 34.9064 29.2243 34.1973C29.6749 33.8427 30.1352 33.4301 30.5112 32.936C30.8871 32.442 31.2208 31.8278 31.1692 31.0686C31.0968 30.0028 30.4061 29.209 29.6694 28.7331C28.9328 28.2573 28.0963 27.9695 27.3086 27.6855C26.5207 27.4015 25.7813 27.1215 25.3123 26.8184C24.8432 26.5154 24.6982 26.3192 24.6747 25.9731C24.6585 25.7341 24.7982 25.3184 25.1706 24.8291C25.543 24.3397 26.106 23.8154 26.6872 23.358C27.8495 22.4433 29.0512 21.7956 29.0512 21.7956L28.2181 20.0954ZM54.196 20.0954C54.196 20.0954 52.8809 20.7975 51.5671 21.8315C50.9102 22.3485 50.2453 22.9482 49.7197 23.639C49.1941 24.3296 48.7656 25.1498 48.8308 26.1088C48.9032 27.1746 49.5939 27.9683 50.3306 28.4442C51.0672 28.92 51.9037 29.2079 52.6914 29.4918C53.4793 29.7758 54.2187 30.0558 54.6877 30.3589C55.1568 30.6619 55.3018 30.8582 55.3253 31.2042C55.328 31.2435 55.2828 31.4533 55.0601 31.7459C54.8374 32.0386 54.479 32.3754 54.1042 32.6705C53.3545 33.2604 52.5724 33.6833 52.5724 33.6833L53.4055 35.3834C53.4055 35.3834 54.3012 34.9064 55.2023 34.1973C55.6528 33.8427 56.1131 33.4301 56.4891 32.936C56.8651 32.442 57.1987 31.8278 57.1472 31.0686C57.0747 30.0028 56.3841 29.209 55.6473 28.7331C54.9107 28.2573 54.0743 27.9695 53.2865 27.6855C52.4986 27.4015 51.7593 27.1215 51.2903 26.8184C50.8211 26.5154 50.6761 26.3192 50.6527 25.9731C50.6364 25.7341 50.7762 25.3184 51.1485 24.8291C51.5209 24.3397 52.0839 23.8154 52.6651 23.358C53.8275 22.4433 55.0291 21.7956 55.0291 21.7956L54.196 20.0954ZM40 32.7285C38.6808 32.7285 37.7886 33.3563 37.1067 34.4263C36.8244 34.8693 36.5966 35.3923 36.4253 35.9619C37.574 35.7913 38.7664 35.7013 40 35.7013C41.2336 35.7013 42.4259 35.7913 43.5747 35.9619C43.4034 35.3923 43.1756 34.8693 42.8933 34.4263C42.2114 33.3563 41.3192 32.7285 40 32.7285ZM40 37.6116C27.881 37.6116 20.3388 46.7451 19.8529 56.083H60.1471C59.6611 46.7451 52.1189 37.6115 40 37.6115V37.6116ZM16.2914 56.575L15 57.9259C16.8388 59.8496 18.8929 59.9041 20.5166 59.9041H59.4834C61.1071 59.9041 63.1611 59.8496 65 57.9259L63.7086 56.575C62.3001 58.0483 61.1071 57.9938 59.4834 57.9938H20.5166C18.8929 57.9938 17.6998 58.0483 16.2914 56.575ZM25.47 61.8149L27.4997 65H52.5003L54.53 61.8149H25.47Z" fill="#B88746"/>
</svg>
