<svg width="80" height="80" viewBox="0 0 80 80" fill="none" xmlns="http://www.w3.org/2000/svg">
<rect x="1" y="1" width="78" height="78" rx="9" stroke="#DFBD69" stroke-width="2"/>
<path d="M22 65V15H41.3846C46 15 49.9231 16.6204 53.1538 19.8611C56.3846 23.1019 58 27.037 58 31.6667C58 36.2963 56.3846 40.2315 53.1538 43.4722C49.9231 46.713 46 48.3333 41.3846 48.3333H33.0769V65H22ZM33.0769 37.2222H41.9385C43.4615 37.2222 44.7658 36.6778 45.8514 35.5889C46.9351 34.5019 47.4769 33.1944 47.4769 31.6667C47.4769 30.1389 46.9351 28.8306 45.8514 27.7417C44.7658 26.6546 43.4615 26.1111 41.9385 26.1111H33.0769V37.2222Z" fill="#B88746"/>
</svg>
