<svg width="50" height="50" viewBox="0 0 50 50" fill="none" xmlns="http://www.w3.org/2000/svg">
<rect x="1" y="1" width="48" height="48" rx="9" stroke="#DFBD69" stroke-width="2"/>
<path d="M35 25V37.5C35 37.8315 34.8683 38.1495 34.6339 38.3839C34.3995 38.6183 34.0815 38.75 33.75 38.75H16.25C15.9185 38.75 15.6005 38.6183 15.3661 38.3839C15.1317 38.1495 15 37.8315 15 37.5V25H35ZM21.25 27.5H18.75V33.75H21.25V27.5ZM33.75 11.25C34.0815 11.25 34.3995 11.3817 34.6339 11.6161C34.8683 11.8505 35 12.1685 35 12.5V22.5H15V12.5C15 12.1685 15.1317 11.8505 15.3661 11.6161C15.6005 11.3817 15.9185 11.25 16.25 11.25H33.75ZM21.25 15H18.75V20H21.25V15Z" fill="#B88746"/>
</svg>
