<svg width="80" height="80" viewBox="0 0 80 80" fill="none" xmlns="http://www.w3.org/2000/svg">
<rect x="1" y="1" width="78" height="78" rx="9" stroke="#DFBD69" stroke-width="2"/>
<path d="M61.4286 54.1429V50.5714C61.4208 45.2011 59.3984 40.0291 55.7613 36.0779C52.1242 32.1266 47.137 29.6838 41.7857 29.2321V25.5714H47.1429V22H32.8571V25.5714H38.2143V29.2321C32.863 29.6838 27.8758 32.1266 24.2387 36.0779C20.6016 40.0291 18.5792 45.2011 18.5714 50.5714V54.1429H15V57.7143H65V54.1429H61.4286ZM40 32.7143C44.1145 32.72 48.1012 34.1439 51.2883 36.7461C54.4754 39.3484 56.6679 42.9698 57.4964 47H22.5036C23.3321 42.9698 25.5246 39.3484 28.7117 36.7461C31.8988 34.1439 35.8855 32.72 40 32.7143ZM22.1429 50.5714H57.8571V54.1429H22.1429V50.5714Z" fill="#B88746"/>
</svg>
