<svg width="80" height="80" viewBox="0 0 80 80" fill="none" xmlns="http://www.w3.org/2000/svg">
<rect x="1" y="1" width="78" height="78" rx="9" stroke="#DFBD69" stroke-width="2"/>
<path d="M58.3333 39.2432C59.375 39.9105 60.3038 40.6673 61.1198 41.5137C61.9358 42.36 62.6389 43.2878 63.2292 44.2969C63.8194 45.306 64.2535 46.3721 64.5313 47.4951C64.809 48.6182 64.9653 49.7656 65 50.9375C65 52.8743 64.6094 54.6973 63.8281 56.4062C63.0469 58.1152 61.9705 59.6045 60.599 60.874C59.2274 62.1436 57.6389 63.1445 55.8333 63.877C54.0278 64.6094 52.0833 64.9837 50 65C48.4201 65 46.8924 64.7803 45.4167 64.3408C43.941 63.9014 42.5868 63.2666 41.3542 62.4365C40.1215 61.6064 39.0278 60.6136 38.0729 59.458C37.1181 58.3024 36.3802 57.0247 35.8594 55.625H15V18.125H21.6667V15H25V18.125H48.3333V15H51.6667V18.125H58.3333V39.2432ZM18.3333 21.25V27.5H55V21.25H51.6667V24.375H48.3333V21.25H25V24.375H21.6667V21.25H18.3333ZM35.0781 52.5C35.026 51.9954 35 51.4746 35 50.9375C35 49.5378 35.2083 48.1787 35.625 46.8604C36.0417 45.542 36.6753 44.2969 37.526 43.125H35V40H38.3333V42.0996C39.0451 41.2695 39.8351 40.5371 40.7031 39.9023C41.5712 39.2676 42.5087 38.7223 43.5156 38.2666C44.5226 37.8109 45.5729 37.4691 46.6667 37.2412C47.7604 37.0133 48.8715 36.8913 50 36.875C51.7361 36.875 53.4028 37.1436 55 37.6807V30.625H18.3333V52.5H35.0781ZM50 61.875C51.6146 61.875 53.125 61.5902 54.5313 61.0205C55.9375 60.4508 57.1701 59.6696 58.2292 58.6768C59.2882 57.6839 60.1215 56.5283 60.7292 55.21C61.3368 53.8916 61.6493 52.4674 61.6667 50.9375C61.6667 49.4238 61.3629 48.0078 60.7552 46.6895C60.1476 45.3711 59.3142 44.2155 58.2552 43.2227C57.1962 42.2298 55.9635 41.4486 54.5573 40.8789C53.151 40.3092 51.6319 40.0163 50 40C48.3854 40 46.875 40.2848 45.4688 40.8545C44.0625 41.4242 42.8299 42.2054 41.7708 43.1982C40.7118 44.1911 39.8785 45.3467 39.2708 46.665C38.6632 47.9834 38.3507 49.4076 38.3333 50.9375C38.3333 52.4512 38.6372 53.8672 39.2448 55.1855C39.8524 56.5039 40.6858 57.6595 41.7448 58.6523C42.8038 59.6452 44.0365 60.4264 45.4427 60.9961C46.849 61.5658 48.3681 61.8587 50 61.875ZM51.6667 49.375H56.6667V52.5H48.3333V43.125H51.6667V49.375ZM21.6667 40H25V43.125H21.6667V40ZM28.3333 40H31.6667V43.125H28.3333V40ZM28.3333 33.75H31.6667V36.875H28.3333V33.75ZM28.3333 46.25H31.6667V49.375H28.3333V46.25ZM38.3333 36.875H35V33.75H38.3333V36.875ZM45 36.875H41.6667V33.75H45V36.875ZM21.6667 33.75H25V36.875H21.6667V33.75Z" fill="#B88746"/>
</svg>
