<svg width="80" height="80" viewBox="0 0 80 80" fill="none" xmlns="http://www.w3.org/2000/svg">
<rect x="1" y="1" width="78" height="78" rx="9" stroke="#DFBD69" stroke-width="2"/>
<path d="M58.0556 26.1111H46.9445V28.8889H58.0556V58.0556H46.9445V60.8333H60.8333V28.8889C60.8333 28.1522 60.5407 27.4456 60.0198 26.9247C59.4988 26.4038 58.7923 26.1111 58.0556 26.1111Z" fill="#B88746"/>
<path d="M42.6111 19.1667H23.5C22.7191 19.1667 21.9701 19.4769 21.4179 20.0291C20.8658 20.5813 20.5555 21.3302 20.5555 22.1111V60.8333H45.5555V22.1111C45.5555 21.3302 45.2453 20.5813 44.6931 20.0291C44.1409 19.4769 43.392 19.1667 42.6111 19.1667ZM42.7778 58.0555H38.6111V53.8889H27.5V58.0555H23.3333V22.1111C23.3333 22.0892 23.3376 22.0675 23.346 22.0473C23.3544 22.0271 23.3667 22.0087 23.3821 21.9932C23.3976 21.9778 23.416 21.9655 23.4362 21.9571C23.4564 21.9487 23.4781 21.9444 23.5 21.9444H42.6111C42.633 21.9444 42.6547 21.9487 42.6749 21.9571C42.6951 21.9655 42.7135 21.9778 42.7289 21.9932C42.7444 22.0087 42.7567 22.0271 42.7651 22.0473C42.7735 22.0675 42.7778 22.0892 42.7778 22.1111V58.0555Z" fill="#B88746"/>
<path d="M26.1111 26.1111H28.8889V28.8889H26.1111V26.1111Z" fill="#B88746"/>
<path d="M31.6667 26.1111H34.4445V28.8889H31.6667V26.1111Z" fill="#B88746"/>
<path d="M37.2222 26.1111H40V28.8889H37.2222V26.1111Z" fill="#B88746"/>
<path d="M26.1111 33.0555H28.8889V35.8333H26.1111V33.0555Z" fill="#B88746"/>
<path d="M31.6667 33.0555H34.4445V35.8333H31.6667V33.0555Z" fill="#B88746"/>
<path d="M37.2222 33.0555H40V35.8333H37.2222V33.0555Z" fill="#B88746"/>
<path d="M26.1111 40H28.8889V42.7778H26.1111V40Z" fill="#B88746"/>
<path d="M31.6667 40H34.4445V42.7778H31.6667V40Z" fill="#B88746"/>
<path d="M37.2222 40H40V42.7778H37.2222V40Z" fill="#B88746"/>
<path d="M26.1111 46.9445H28.8889V49.7222H26.1111V46.9445Z" fill="#B88746"/>
<path d="M31.6667 46.9445H34.4445V49.7222H31.6667V46.9445Z" fill="#B88746"/>
<path d="M37.2222 46.9445H40V49.7222H37.2222V46.9445Z" fill="#B88746"/>
<path d="M46.9445 33.0555H49.7222V35.8333H46.9445V33.0555Z" fill="#B88746"/>
<path d="M52.5 33.0555H55.2778V35.8333H52.5V33.0555Z" fill="#B88746"/>
<path d="M46.9445 40H49.7222V42.7778H46.9445V40Z" fill="#B88746"/>
<path d="M52.5 40H55.2778V42.7778H52.5V40Z" fill="#B88746"/>
<path d="M46.9445 46.9445H49.7222V49.7222H46.9445V46.9445Z" fill="#B88746"/>
<path d="M52.5 46.9445H55.2778V49.7222H52.5V46.9445Z" fill="#B88746"/>
</svg>
