<svg width="80" height="80" viewBox="0 0 80 80" fill="none" xmlns="http://www.w3.org/2000/svg">
<rect x="1" y="1" width="78" height="78" rx="9" stroke="#DFBD69" stroke-width="2"/>
<path d="M47.1667 31.6667H27.7223C27.3539 31.6667 27.0006 31.5203 26.7402 31.2599C26.4797 30.9994 26.3334 30.6461 26.3334 30.2778V24.7222C26.3334 24.3539 26.4797 24.0006 26.7402 23.7401C27.0006 23.4797 27.3539 23.3333 27.7223 23.3333H47.1667C47.5351 23.3333 47.8883 23.4797 48.1488 23.7401C48.4093 24.0006 48.5556 24.3539 48.5556 24.7222V30.2778C48.5556 30.6461 48.4093 30.9994 48.1488 31.2599C47.8883 31.5203 47.5351 31.6667 47.1667 31.6667ZM29.1112 28.8889H45.7778V26.0278H29.1112V28.8889Z" fill="#B88746"/>
<path d="M47.1667 34.5556H27.7223C27.3539 34.5556 27.0006 34.7019 26.7402 34.9624C26.4797 35.2228 26.3334 35.5761 26.3334 35.9445V41.3889C26.3334 41.7573 26.4797 42.1105 26.7402 42.371C27.0006 42.6315 27.3539 42.7778 27.7223 42.7778H43.5L48.5556 37.6389V35.9445C48.5556 35.5761 48.4093 35.2228 48.1488 34.9624C47.8883 34.7019 47.5351 34.5556 47.1667 34.5556ZM45.7778 40H29.1112V37.2222H45.7778V40Z" fill="#B88746"/>
<path d="M33.3612 58.7639V58.6806L33.8056 56.75H23.5556V20.5555H51.3334V34.7917L54.1112 32.1667V19.1667C54.1112 18.7983 53.9648 18.445 53.7044 18.1846C53.4439 17.9241 53.0906 17.7778 52.7223 17.7778H22.1667C21.7984 17.7778 21.4451 17.9241 21.1846 18.1846C20.9242 18.445 20.7778 18.7983 20.7778 19.1667V58.0556C20.7778 58.4239 20.9242 58.7772 21.1846 59.0376C21.4451 59.2981 21.7984 59.4444 22.1667 59.4444H33.2778C33.2893 59.2159 33.3171 58.9884 33.3612 58.7639V58.7639Z" fill="#B88746"/>
<path d="M48.5555 41.625L47.4722 42.7222C47.7409 42.6668 47.9873 42.533 48.1801 42.3377C48.3729 42.1424 48.5035 41.8944 48.5555 41.625Z" fill="#B88746"/>
<path d="M26.3334 52.4167C26.3334 52.785 26.4797 53.1383 26.7402 53.3987C27.0006 53.6592 27.3539 53.8055 27.7223 53.8055H34.4445L34.8612 52L35.0417 51.2361V51.1667H29.1112V48.3333H37.9167L40.6945 45.5555H27.7223C27.3539 45.5555 27.0006 45.7019 26.7402 45.9623C26.4797 46.2228 26.3334 46.5761 26.3334 46.9444V52.4167Z" fill="#B88746"/>
<path d="M64.5139 38.1528L59.8333 33.4723C59.6256 33.264 59.3788 33.0987 59.1072 32.986C58.8355 32.8732 58.5442 32.8152 58.25 32.8152C57.9558 32.8152 57.6646 32.8732 57.3929 32.986C57.1212 33.0987 56.8744 33.264 56.6667 33.4723L37.625 52.625L36.0556 59.3056C35.9968 59.5938 35.9955 59.8908 36.0517 60.1795C36.1079 60.4682 36.2205 60.743 36.383 60.9881C36.5456 61.2333 36.7549 61.4439 36.999 61.608C37.2431 61.7721 37.5172 61.8865 37.8056 61.9445C37.9487 61.9589 38.093 61.9589 38.2361 61.9445C38.4063 61.9722 38.5798 61.9722 38.75 61.9445L45.4861 60.4584L64.5139 41.3889C64.7218 41.1824 64.8867 40.9368 64.9993 40.6662C65.1119 40.3957 65.1698 40.1056 65.1698 39.8125C65.1698 39.5195 65.1119 39.2294 64.9993 38.9588C64.8867 38.6883 64.7218 38.4427 64.5139 38.2362V38.1528ZM44.0695 57.9306L38.9861 59.0556L40.2222 54.0139L54.5 39.5834L58.4167 43.5L44.0695 57.9306ZM59.9861 41.9306L56.0695 38.0139L58.2778 35.8334L62.2222 39.7778L59.9861 41.9306Z" fill="#B88746"/>
</svg>
