<svg width="50" height="50" viewBox="0 0 50 50" fill="none" xmlns="http://www.w3.org/2000/svg">
<circle cx="25" cy="25" r="25" fill="url(#paint0_linear_1866_528)"/>
<path d="M11.0771 10.0001C10.4857 10.8967 10.3399 11.9981 10.5684 13.2701C10.8408 14.7869 11.6652 16.4962 12.8566 18.1056C15.2397 21.3245 19.0863 24.107 22.5084 24.5289L22.7476 24.5592L22.9017 24.7425L35.4943 39.8537C36.7494 40.1518 37.5598 39.9662 37.9812 39.5513C38.4058 39.1332 38.6017 38.326 38.2872 37.0449L11.0772 10L11.0771 10.0001ZM35.4032 10.1491L28.3661 17.1446C27.5878 17.9181 27.581 18.7693 27.9829 19.6994L28.1491 20.0843L27.8451 20.3744L25.4818 22.6148L27.4012 24.5228L29.6449 22.1674L29.9368 21.8612L30.3239 22.0284C31.3075 22.4498 32.2402 22.4325 32.9628 21.7141L40 14.7187L39.0859 13.81L34.5093 18.3575L33.654 17.5053L38.2285 12.9579L37.2536 11.9886L32.6792 16.5361L31.8217 15.6838L36.3962 11.1365L35.4032 10.1491ZM22.1699 25.7559L10.1447 37.1618C9.84798 38.3836 10.0381 39.1468 10.4386 39.5412C10.8393 39.9357 11.6144 40.1168 12.8283 39.8253L24.0631 28.0287L22.1699 25.7559Z" fill="white"/>
<defs>
<linearGradient id="paint0_linear_1866_528" x1="25" y1="0" x2="25" y2="50" gradientUnits="userSpaceOnUse">
<stop stop-color="#B88746"/>
<stop offset="1" stop-color="#DFBD69"/>
</linearGradient>
</defs>
</svg>
