<svg width="50" height="50" viewBox="0 0 50 50" fill="none" xmlns="http://www.w3.org/2000/svg">
<path d="M12.5 30V33.75M15 21.25V18.75C15 18.087 15.2634 17.4511 15.7322 16.9822C16.2011 16.5134 16.837 16.25 17.5 16.25H32.5C33.163 16.25 33.7989 16.5134 34.2678 16.9822C34.7366 17.4511 35 18.087 35 18.75V21.25" stroke="#B88746" stroke-width="1.5" stroke-linecap="round" stroke-linejoin="round"/>
<path d="M37.5 30V33.75M35 21.25C34.337 21.25 33.7011 21.5134 33.2322 21.9822C32.7634 22.4511 32.5 23.087 32.5 23.75V26.25H17.5V23.75C17.5 23.087 17.2366 22.4511 16.7678 21.9822C16.2989 21.5134 15.663 21.25 15 21.25C14.337 21.25 13.7011 21.5134 13.2322 21.9822C12.7634 22.4511 12.5 23.087 12.5 23.75V31.25H37.5V23.75C37.5 23.087 37.2366 22.4511 36.7678 21.9822C36.2989 21.5134 35.663 21.25 35 21.25Z" stroke="#B88746" stroke-width="1.5" stroke-linecap="round" stroke-linejoin="round"/>
<rect x="1" y="1" width="48" height="48" rx="9" stroke="#DFBD69" stroke-width="2"/>
</svg>
