<svg width="50" height="50" viewBox="0 0 50 50" fill="none" xmlns="http://www.w3.org/2000/svg">
<path d="M17.5 15.625C16.5054 15.625 15.5516 16.0201 14.8483 16.7233C14.1451 17.4266 13.75 18.3804 13.75 19.375V26.875C13.75 27.8696 14.1451 28.8234 14.8483 29.5266C15.5516 30.2299 16.5054 30.625 17.5 30.625H32.5C33.4946 30.625 34.4484 30.2299 35.1516 29.5266C35.8549 28.8234 36.25 27.8696 36.25 26.875V19.375C36.25 18.3804 35.8549 17.4266 35.1516 16.7233C34.4484 16.0201 33.4946 15.625 32.5 15.625H17.5ZM15.625 19.375C15.625 18.8777 15.8225 18.4008 16.1742 18.0492C16.5258 17.6975 17.0027 17.5 17.5 17.5H32.5C32.9973 17.5 33.4742 17.6975 33.8258 18.0492C34.1775 18.4008 34.375 18.8777 34.375 19.375V26.875C34.375 27.3723 34.1775 27.8492 33.8258 28.2008C33.4742 28.5525 32.9973 28.75 32.5 28.75H17.5C17.0027 28.75 16.5258 28.5525 16.1742 28.2008C15.8225 27.8492 15.625 27.3723 15.625 26.875V19.375ZM18.4375 32.5C18.1889 32.5 17.9504 32.5988 17.7746 32.7746C17.5988 32.9504 17.5 33.1889 17.5 33.4375C17.5 33.6861 17.5988 33.9246 17.7746 34.1004C17.9504 34.2762 18.1889 34.375 18.4375 34.375H31.5625C31.8111 34.375 32.0496 34.2762 32.2254 34.1004C32.4012 33.9246 32.5 33.6861 32.5 33.4375C32.5 33.1889 32.4012 32.9504 32.2254 32.7746C32.0496 32.5988 31.8111 32.5 31.5625 32.5H18.4375Z" fill="#B88746"/>
<rect x="1" y="1" width="48" height="48" rx="9" stroke="#DFBD69" stroke-width="2"/>
</svg>
