<svg width="50" height="50" viewBox="0 0 50 50" fill="none" xmlns="http://www.w3.org/2000/svg">
<circle cx="25" cy="25" r="25" fill="url(#paint0_linear_1866_551)"/>
<path d="M23.9286 12.2071C23.9286 12.6679 24.2221 13.0557 24.6314 13.2036H24.4643C24.1643 13.2036 23.9286 13.45 23.9286 13.7393C23.9286 14.0393 24.175 14.2857 24.4643 14.2857H22.8464C22.5641 14.2885 22.2944 14.4027 22.0957 14.6033C21.8971 14.8039 21.7857 15.0748 21.7857 15.3571H21.3893C21.25 15.3571 21.1165 15.4125 21.0181 15.5109C20.9196 15.6094 20.8643 15.7429 20.8643 15.8821V15.9036C20.8643 16.1929 21.1 16.4286 21.3893 16.4286H21.7857V17.5C19.4179 17.5 17.5 19.4179 17.5 21.7857V23.9286H15.8929C15.7508 23.9286 15.6145 23.985 15.5141 24.0855C15.4136 24.1859 15.3571 24.3222 15.3571 24.4643C15.3571 24.6064 15.4136 24.7426 15.5141 24.8431C15.6145 24.9436 15.7508 25 15.8929 25H16.4286V27.1429H13.75C13.6079 27.1429 13.4717 27.1993 13.3712 27.2998C13.2707 27.4002 13.2143 27.5365 13.2143 27.6786C13.2143 27.8207 13.2707 27.9569 13.3712 28.0574C13.4717 28.1578 13.6079 28.2143 13.75 28.2143H14.2857V30.3571H12.6786C12.5365 30.3571 12.4002 30.4136 12.2998 30.514C12.1993 30.6145 12.1429 30.7508 12.1429 30.8929C12.1429 31.0349 12.1993 31.1712 12.2998 31.2717C12.4002 31.3721 12.5365 31.4286 12.6786 31.4286H13.2143V33.5714H11.6071C11.4651 33.5714 11.3288 33.6279 11.2283 33.7283C11.1279 33.8288 11.0714 33.9651 11.0714 34.1071C11.0714 34.2492 11.1279 34.3855 11.2283 34.486C11.3288 34.5864 11.4651 34.6429 11.6071 34.6429H12.1429V36.7857H10.5357C10.3936 36.7857 10.2574 36.8422 10.1569 36.9426C10.0564 37.0431 10 37.1793 10 37.3214C10 37.4635 10.0564 37.5998 10.1569 37.7002C10.2574 37.8007 10.3936 37.8571 10.5357 37.8571H11.0714V40H38.9286V37.8571H39.4643C39.6064 37.8571 39.7426 37.8007 39.8431 37.7002C39.9436 37.5998 40 37.4635 40 37.3214C40 37.1793 39.9436 37.0431 39.8431 36.9426C39.7426 36.8422 39.6064 36.7857 39.4643 36.7857H37.8571V34.6429H38.3929C38.5349 34.6429 38.6712 34.5864 38.7717 34.486C38.8721 34.3855 38.9286 34.2492 38.9286 34.1071C38.9286 33.9651 38.8721 33.8288 38.7717 33.7283C38.6712 33.6279 38.5349 33.5714 38.3929 33.5714H36.7857V31.4286H37.3214C37.4635 31.4286 37.5998 31.3721 37.7002 31.2717C37.8007 31.1712 37.8571 31.0349 37.8571 30.8929C37.8571 30.7508 37.8007 30.6145 37.7002 30.514C37.5998 30.4136 37.4635 30.3571 37.3214 30.3571H35.7143V28.2143H36.25C36.3921 28.2143 36.5283 28.1578 36.6288 28.0574C36.7293 27.9569 36.7857 27.8207 36.7857 27.6786C36.7857 27.5365 36.7293 27.4002 36.6288 27.2998C36.5283 27.1993 36.3921 27.1429 36.25 27.1429H33.5714V25H34.1071C34.2492 25 34.3855 24.9436 34.486 24.8431C34.5864 24.7426 34.6429 24.6064 34.6429 24.4643C34.6429 24.3222 34.5864 24.1859 34.486 24.0855C34.3855 23.985 34.2492 23.9286 34.1071 23.9286H32.5V21.7857C32.5 19.4179 30.5821 17.5 28.2143 17.5V16.4286H28.6964C28.8366 16.4258 28.9702 16.3681 29.0683 16.2679C29.1665 16.1678 29.2215 16.0331 29.2214 15.8929V15.8821C29.2214 15.7429 29.1661 15.6094 29.0677 15.5109C28.9692 15.4125 28.8357 15.3571 28.6964 15.3571H28.2143C28.2157 15.216 28.189 15.0761 28.1356 14.9454C28.0823 14.8148 28.0034 14.6961 27.9037 14.5963C27.8039 14.4966 27.6852 14.4177 27.5546 14.3644C27.4239 14.311 27.284 14.2843 27.1429 14.2857H25.5464C25.8357 14.2857 26.0714 14.0393 26.0821 13.7393C26.0821 13.4393 25.8357 13.2036 25.5464 13.2036H25.3729C25.5768 13.1315 25.7534 12.998 25.8785 12.8215C26.0036 12.645 26.071 12.4342 26.0714 12.2179V12.175C26.0714 11.5964 25.5893 10 25 10C24.4107 10 23.9286 11.5964 23.9286 12.175V12.2071ZM27.1214 39.9893V35.5964C27.1214 35.0714 26.6929 34.6429 26.1679 34.6429H23.8107C23.2857 34.6429 22.8571 35.0714 22.8571 35.5964V39.9893H20.7143V33.5714H19.1929C18.7214 33.5714 18.4214 33.1 18.625 32.7036L19.1393 31.75C19.2464 31.5571 19.4714 31.4286 19.7071 31.4286H30.2607C30.5071 31.4286 30.7214 31.5464 30.8286 31.75L31.3429 32.7036C31.5571 33.1 31.2464 33.5714 30.775 33.5714H29.2964V39.9893H27.1214ZM29.7143 30.3571H20.2857C19.8143 30.3571 19.5143 29.8857 19.7179 29.4893L20.2321 28.5357C20.3393 28.3321 20.5643 28.2036 20.8 28.2036H29.2C29.4464 28.2036 29.6607 28.3321 29.7679 28.5357L30.2821 29.4893C30.4964 29.8857 30.1857 30.3571 29.7143 30.3571ZM21.3571 27.1429C20.8857 27.1429 20.575 26.6714 20.7893 26.275L21.3036 25.3321C21.4107 25.1393 21.6357 25.0107 21.8714 25.0107H22.8571C22.8611 24.7231 22.9778 24.4485 23.1822 24.2461C23.3866 24.0437 23.6623 23.9297 23.95 23.9286H26.0393C26.6468 23.9286 27.1268 24.415 27.1321 25.0107H28.1393C28.3857 25.0107 28.6 25.1286 28.7071 25.3321L29.2214 26.275C29.4357 26.6714 29.125 27.1429 28.6536 27.1429H21.3571ZM25 23.9286C24.8579 23.9286 24.7217 23.8721 24.6212 23.7717C24.5207 23.6712 24.4643 23.5349 24.4643 23.3929C24.4643 23.2508 24.5207 23.1145 24.6212 23.014C24.7217 22.9136 24.8579 22.8571 25 22.8571C25.1421 22.8571 25.2783 22.9136 25.3788 23.014C25.4793 23.1145 25.5357 23.2508 25.5357 23.3929C25.5357 23.5349 25.4793 23.6712 25.3788 23.7717C25.2783 23.8721 25.1421 23.9286 25 23.9286ZM33.5714 37.8571H37.8571V38.9286H33.5714V37.8571ZM33.5714 34.6429H36.7857V35.7143H33.5714V34.6429ZM33.5714 31.4286H35.7143V32.5H33.5714V31.4286ZM33.5714 29.2857V28.2143H34.6429V29.2857H33.5714ZM12.1429 37.8571H16.4286V38.9286H12.1429V37.8571ZM13.2143 34.6429H16.4286V35.7143H13.2143V34.6429ZM14.2857 32.5V31.4286H16.4286V32.5H14.2857ZM15.3571 28.2143H16.4286V29.2857H15.3571V28.2143Z" fill="white"/>
<defs>
<linearGradient id="paint0_linear_1866_551" x1="25" y1="0" x2="25" y2="50" gradientUnits="userSpaceOnUse">
<stop stop-color="#B88746"/>
<stop offset="1" stop-color="#DFBD69"/>
</linearGradient>
</defs>
</svg>
