<svg width="80" height="80" viewBox="0 0 80 80" fill="none" xmlns="http://www.w3.org/2000/svg">
<rect x="1" y="1" width="78" height="78" rx="9" stroke="#DFBD69" stroke-width="2"/>
<path d="M26.1112 18C21.5088 18 17.7779 25.3872 17.7779 34.5V49.2873C17.7779 52.821 16.9272 54.6816 15.0722 60.1902C14.7727 61.0805 15.442 62 16.3899 62H40.7753C41.9706 62 43.0322 61.2429 43.4107 60.1197C44.5244 56.8128 45.5556 53.8978 45.5556 49.2873V34.5C45.5556 27.3156 47.6103 21.3069 50.8021 18H26.1112ZM23.3335 37.25C22.5661 37.25 21.9446 36.6347 21.9446 35.875C21.9446 35.1153 22.5661 34.5 23.3335 34.5C24.1008 34.5 24.7224 35.1153 24.7224 35.875C24.7224 36.6347 24.1008 37.25 23.3335 37.25ZM28.889 37.25C28.1217 37.25 27.5001 36.6347 27.5001 35.875C27.5001 35.1153 28.1217 34.5 28.889 34.5C29.6564 34.5 30.2779 35.1153 30.2779 35.875C30.2779 36.6347 29.6564 37.25 28.889 37.25ZM34.4445 37.25C33.6772 37.25 33.0557 36.6347 33.0557 35.875C33.0557 35.1153 33.6772 34.5 34.4445 34.5C35.2119 34.5 35.8334 35.1153 35.8334 35.875C35.8334 36.6347 35.2119 37.25 34.4445 37.25ZM40.0001 37.25C39.2327 37.25 38.6112 36.6347 38.6112 35.875C38.6112 35.1153 39.2327 34.5 40.0001 34.5C40.7674 34.5 41.389 35.1153 41.389 35.875C41.389 36.6347 40.7674 37.25 40.0001 37.25ZM56.6667 18C52.0643 18 48.3334 25.3872 48.3334 34.5C48.3334 43.6128 52.0643 51 56.6667 51C61.2691 51 65 43.6128 65 34.5C65 25.3872 61.2691 18 56.6667 18ZM56.6667 40C55.1328 40 53.8889 37.5379 53.8889 34.5C53.8889 31.4621 55.1328 29 56.6667 29C58.2005 29 59.4445 31.4621 59.4445 34.5C59.4445 37.5379 58.2005 40 56.6667 40Z" fill="#B88746"/>
</svg>
