<svg width="80" height="80" viewBox="0 0 80 80" fill="none" xmlns="http://www.w3.org/2000/svg">
<rect x="1" y="1" width="78" height="78" rx="9" stroke="#DFBD69" stroke-width="2"/>
<path d="M60.4545 19H19.5455C17.0455 19 15 21.1 15 23.6667V51.6667C15 54.2333 17.0455 56.3333 19.5455 56.3333H30.9091V61H49.0909V56.3333H60.4545C62.9545 56.3333 64.9773 54.2333 64.9773 51.6667L65 23.6667C65 21.1 62.9545 19 60.4545 19ZM60.4545 51.6667H19.5455V23.6667H60.4545V51.6667ZM21.8182 44.6667V49.3333H26.3636C26.3636 46.7433 24.3409 44.6667 21.8182 44.6667ZM21.8182 37.6667V41.0033C26.2955 41.0033 29.9318 44.7367 29.9318 49.3333H33.1818C33.1818 42.8933 28.0909 37.6667 21.8182 37.6667ZM21.8182 30.6667V34.05C30.0227 34.05 36.7045 40.8867 36.7045 49.3333H40C40 39.02 31.8409 30.6667 21.8182 30.6667Z" fill="#B88746"/>
</svg>
