<svg width="50" height="50" viewBox="0 0 50 50" fill="none" xmlns="http://www.w3.org/2000/svg">
<rect x="1" y="1" width="48" height="48" rx="9" stroke="#DFBD69" stroke-width="2"/>
<path d="M35 16.25L27.5 22.5M35 21.25L25.625 28.75M35 15V35C35 35.663 34.7366 36.2989 34.2678 36.7678C33.7989 37.2366 33.163 37.5 32.5 37.5H17.5C16.837 37.5 16.2011 37.2366 15.7322 36.7678C15.2634 36.2989 15 35.663 15 35V15C15 14.337 15.2634 13.7011 15.7322 13.2322C16.2011 12.7634 16.837 12.5 17.5 12.5H32.5C33.163 12.5 33.7989 12.7634 34.2678 13.2322C34.7366 13.7011 35 14.337 35 15Z" stroke="#B88746" stroke-width="1.5" stroke-linecap="round" stroke-linejoin="round"/>
</svg>
