<svg width="50" height="50" viewBox="0 0 50 50" fill="none" xmlns="http://www.w3.org/2000/svg">
<rect x="1" y="1" width="48" height="48" rx="9" stroke="#DFBD69" stroke-width="2"/>
<path d="M37.1875 21.25H34.375C34.375 21.0014 34.2762 20.7629 34.1004 20.5871C33.9246 20.4113 33.6861 20.3125 33.4375 20.3125H25.9375C25.6889 20.3125 25.4504 20.4113 25.2746 20.5871C25.0988 20.7629 25 21.0014 25 21.25H17.5V16.0938C17.5 15.7208 17.6482 15.3631 17.9119 15.0994C18.1756 14.8357 18.5333 14.6875 18.9062 14.6875C19.2792 14.6875 19.6369 14.8357 19.9006 15.0994C20.1643 15.3631 20.3125 15.7208 20.3125 16.0938C20.3125 16.3424 20.4113 16.5808 20.5871 16.7567C20.7629 16.9325 21.0014 17.0312 21.25 17.0312C21.4986 17.0312 21.7371 16.9325 21.9129 16.7567C22.0887 16.5808 22.1875 16.3424 22.1875 16.0938C22.1875 15.2235 21.8418 14.3889 21.2264 13.7736C20.6111 13.1582 19.7765 12.8125 18.9062 12.8125C18.036 12.8125 17.2014 13.1582 16.5861 13.7736C15.9707 14.3889 15.625 15.2235 15.625 16.0938V21.25H12.8125C12.3152 21.25 11.8383 21.4475 11.4867 21.7992C11.135 22.1508 10.9375 22.6277 10.9375 23.125V26.875C10.9375 28.6155 11.6289 30.2847 12.8596 31.5154C14.0903 32.7461 15.7595 33.4375 17.5 33.4375V35.3125C17.5 35.5611 17.5988 35.7996 17.7746 35.9754C17.9504 36.1512 18.1889 36.25 18.4375 36.25C18.6861 36.25 18.9246 36.1512 19.1004 35.9754C19.2762 35.7996 19.375 35.5611 19.375 35.3125V33.4375H30.625V35.3125C30.625 35.5611 30.7238 35.7996 30.8996 35.9754C31.0754 36.1512 31.3139 36.25 31.5625 36.25C31.8111 36.25 32.0496 36.1512 32.2254 35.9754C32.4012 35.7996 32.5 35.5611 32.5 35.3125V33.4375C34.2405 33.4375 35.9097 32.7461 37.1404 31.5154C38.3711 30.2847 39.0625 28.6155 39.0625 26.875V23.125C39.0625 22.6277 38.865 22.1508 38.5133 21.7992C38.1617 21.4475 37.6848 21.25 37.1875 21.25ZM32.5 22.1875V25.9375H26.875V22.1875H32.5ZM37.1875 26.875C37.1875 27.4906 37.0663 28.1001 36.8307 28.6688C36.5951 29.2375 36.2498 29.7543 35.8146 30.1896C35.3793 30.6248 34.8625 30.9701 34.2938 31.2057C33.7251 31.4413 33.1156 31.5625 32.5 31.5625H17.5C16.2568 31.5625 15.0645 31.0686 14.1854 30.1896C13.3064 29.3105 12.8125 28.1182 12.8125 26.875V23.125H25V26.875C25 27.1236 25.0988 27.3621 25.2746 27.5379C25.4504 27.7137 25.6889 27.8125 25.9375 27.8125H33.4375C33.6861 27.8125 33.9246 27.7137 34.1004 27.5379C34.2762 27.3621 34.375 27.1236 34.375 26.875V23.125H37.1875V26.875Z" fill="#B88746"/>
</svg>
