<svg width="80" height="80" viewBox="0 0 80 80" fill="none" xmlns="http://www.w3.org/2000/svg">
<path d="M64.6023 32.6C50.7609 19.7977 29.2335 19.8023 15.3976 32.6C14.8773 33.0813 14.8671 33.8961 15.3702 34.3953L18.0452 37.0492C18.5249 37.5258 19.2968 37.5359 19.7952 37.0789C31.1953 26.6352 48.8031 26.6328 60.2054 37.0789C60.7039 37.5359 61.4757 37.525 61.9554 37.0492L64.6304 34.3953C65.1328 33.8961 65.1226 33.0813 64.6023 32.6ZM39.9999 48C37.2382 48 34.9999 50.2383 34.9999 53C34.9999 55.7617 37.2382 58 39.9999 58C42.7617 58 45 55.7617 45 53C45 50.2383 42.7617 48 39.9999 48ZM55.8335 41.4695C46.8289 33.5063 33.1609 33.5148 24.1663 41.4695C23.6273 41.9461 23.6101 42.7734 24.1218 43.2781L26.8124 45.9336C27.2812 46.3961 28.0359 46.4274 28.5351 45.9961C35.0937 40.3266 44.921 40.3391 51.464 45.9961C51.9632 46.4274 52.7179 46.3969 53.1867 45.9336L55.8773 43.2781C56.3898 42.7734 56.3718 41.9453 55.8335 41.4695Z" fill="#B88746"/>
<rect x="1" y="1" width="78" height="78" rx="9" stroke="#DFBD69" stroke-width="2"/>
</svg>
