<svg width="50" height="50" viewBox="0 0 50 50" fill="none" xmlns="http://www.w3.org/2000/svg">
<g clip-path="url(#clip0_2368_9)">
<path d="M16.0938 14.6875C15.7208 14.6875 15.3631 14.8357 15.0994 15.0994C14.8357 15.3631 14.6875 15.7208 14.6875 16.0938V23.5938C14.6875 23.7181 14.7369 23.8373 14.8248 23.9252C14.9127 24.0131 15.0319 24.0625 15.1562 24.0625H23.5938C23.7181 24.0625 23.8373 24.0131 23.9252 23.9252C24.0131 23.8373 24.0625 23.7181 24.0625 23.5938V15.1562C24.0625 15.0319 24.0131 14.9127 23.9252 14.8248C23.8373 14.7369 23.7181 14.6875 23.5938 14.6875H16.0938ZM26.4062 14.6875C26.2819 14.6875 26.1627 14.7369 26.0748 14.8248C25.9869 14.9127 25.9375 15.0319 25.9375 15.1562V23.5938C25.9375 23.7181 25.9869 23.8373 26.0748 23.9252C26.1627 24.0131 26.2819 24.0625 26.4062 24.0625H34.8438C34.9681 24.0625 35.0873 24.0131 35.1752 23.9252C35.2631 23.8373 35.3125 23.7181 35.3125 23.5938V16.0938C35.3125 15.7208 35.1643 15.3631 34.9006 15.0994C34.6369 14.8357 34.2792 14.6875 33.9062 14.6875H26.4062ZM34.2381 15.7619C34.2816 15.8055 34.3161 15.8572 34.3396 15.9142C34.3631 15.9711 34.3751 16.0322 34.375 16.0938V23.125H26.875L34.2381 15.7619ZM25.9375 26.4062C25.9375 26.2819 25.9869 26.1627 26.0748 26.0748C26.1627 25.9869 26.2819 25.9375 26.4062 25.9375H34.8438C34.9681 25.9375 35.0873 25.9869 35.1752 26.0748C35.2631 26.1627 35.3125 26.2819 35.3125 26.4062V33.9062C35.3125 34.2792 35.1643 34.6369 34.9006 34.9006C34.6369 35.1643 34.2792 35.3125 33.9062 35.3125H26.4062C26.2819 35.3125 26.1627 35.2631 26.0748 35.1752C25.9869 35.0873 25.9375 34.9681 25.9375 34.8438V26.4062ZM26.875 34.375H33.9062C34.0306 34.375 34.1498 34.3256 34.2377 34.2377C34.3256 34.1498 34.375 34.0306 34.375 33.9062V26.875H26.875V34.375ZM15.1562 25.9375C15.0319 25.9375 14.9127 25.9869 14.8248 26.0748C14.7369 26.1627 14.6875 26.2819 14.6875 26.4062V33.9062C14.6875 34.2792 14.8357 34.6369 15.0994 34.9006C15.3631 35.1643 15.7208 35.3125 16.0938 35.3125H23.5938C23.7181 35.3125 23.8373 35.2631 23.9252 35.1752C24.0131 35.0873 24.0625 34.9681 24.0625 34.8438V26.4062C24.0625 26.2819 24.0131 26.1627 23.9252 26.0748C23.8373 25.9869 23.7181 25.9375 23.5938 25.9375H15.1562ZM23.125 26.875V34.375H16.0938C16.0321 34.3752 15.9711 34.3632 15.9142 34.3397C15.8572 34.3162 15.8055 34.2817 15.7619 34.2381L23.125 26.875Z" fill="#B88746"/>
<path d="M15.625 10.9375C15.0094 10.9375 14.3999 11.0587 13.8312 11.2943C13.2625 11.5299 12.7457 11.8752 12.3104 12.3104C11.4314 13.1895 10.9375 14.3818 10.9375 15.625V34.375C10.9375 35.6182 11.4314 36.8105 12.3104 37.6896C12.7457 38.1248 13.2625 38.4701 13.8312 38.7057C14.3999 38.9413 15.0094 39.0625 15.625 39.0625H34.375C35.6182 39.0625 36.8105 38.5686 37.6896 37.6896C38.5686 36.8105 39.0625 35.6182 39.0625 34.375V15.625C39.0625 15.0094 38.9413 14.3999 38.7057 13.8312C38.4701 13.2625 38.1248 12.7457 37.6896 12.3104C37.2543 11.8752 36.7375 11.5299 36.1688 11.2943C35.6001 11.0587 34.9906 10.9375 34.375 10.9375H15.625ZM12.8125 15.625C12.8125 14.8791 13.1088 14.1637 13.6363 13.6363C14.1637 13.1088 14.8791 12.8125 15.625 12.8125H34.375C35.1209 12.8125 35.8363 13.1088 36.3637 13.6363C36.8912 14.1637 37.1875 14.8791 37.1875 15.625V34.375C37.1875 35.1209 36.8912 35.8363 36.3637 36.3637C35.8363 36.8912 35.1209 37.1875 34.375 37.1875H15.625C14.8791 37.1875 14.1637 36.8912 13.6363 36.3637C13.1088 35.8363 12.8125 35.1209 12.8125 34.375V15.625Z" fill="#B88746"/>
</g>
<rect x="1" y="1" width="48" height="48" rx="9" stroke="#DFBD69" stroke-width="2"/>
<defs>
<clipPath id="clip0_2368_9">
<rect width="30" height="30" fill="white" transform="translate(10 10)"/>
</clipPath>
</defs>
</svg>
