<svg width="30" height="30" viewBox="0 0 30 30" fill="none" xmlns="http://www.w3.org/2000/svg">
<rect width="30" height="30" rx="10" fill="url(#paint0_linear_3831_2)"/>
<path d="M9.75009 16.5984L18.2976 16.5992C18.3784 16.7368 18.4765 16.8641 18.5931 16.9777L19.1524 17.5234C19.1213 17.6515 19.0793 17.7787 19.0279 17.9059C18.9302 17.8361 18.814 17.7987 18.695 17.7987H9.75009C9.59538 17.7987 9.447 17.8619 9.33759 17.9745C9.22819 18.087 9.16673 18.2397 9.16673 18.3989V19.1246C9.16673 19.6496 9.38919 20.1489 9.77654 20.4906C10.755 21.3556 12.229 21.7997 14.2202 21.7997C14.4466 21.7997 14.6675 21.7941 14.8814 21.7829C14.9436 22.1398 15.11 22.4791 15.3714 22.7503L15.5487 22.9328C15.1272 22.9776 14.6854 23 14.2202 23C11.9723 23 10.2316 22.4751 9.01583 21.3996C8.69719 21.1179 8.44145 20.7687 8.26613 20.3759C8.0908 19.9832 8.00002 19.556 8 19.1238V18.3981C8.00021 17.9207 8.18468 17.4629 8.51287 17.1255C8.84105 16.788 9.28607 16.5984 9.75009 16.5984ZM18.8949 15.194L19.2869 14.2442C19.4705 13.7993 19.91 13.5568 20.3417 13.6497L20.4334 13.6737L20.9235 13.8353C21.4096 13.9953 21.7822 14.4235 21.9027 14.9612C22.1882 16.2399 21.8452 17.7963 20.8745 19.6312C19.9045 21.4636 18.8412 22.5647 17.6854 22.936C17.4647 23.0063 17.2303 23.0181 17.0039 22.9701C16.7776 22.9221 16.5668 22.8159 16.3911 22.6615L16.2954 22.5711L15.9229 22.187C15.7662 22.0211 15.6651 21.8082 15.634 21.5791C15.603 21.35 15.6437 21.1167 15.7502 20.9131L15.8054 20.8203L16.3662 19.972C16.5871 19.6384 16.9651 19.4807 17.3292 19.5599L17.428 19.5879L18.464 19.9432C18.8844 19.6134 19.2362 19.2 19.4985 18.7277C19.7253 18.3354 19.8823 17.9045 19.9621 17.4554L19.9916 17.2394L19.129 16.3975C18.9897 16.258 18.8907 16.0815 18.8429 15.8875C18.7951 15.6936 18.8005 15.4899 18.8584 15.2989L18.8949 15.1948L19.2869 14.2442L18.8949 15.194ZM14.2202 7C14.7309 7 15.2367 7.10349 15.7085 7.30456C16.1804 7.50563 16.6091 7.80034 16.9702 8.17187C17.3314 8.54339 17.6178 8.98446 17.8133 9.46988C18.0087 9.95531 18.1093 10.4756 18.1093 11.001C18.1093 11.5264 18.0087 12.0467 17.8133 12.5321C17.6178 13.0175 17.3314 13.4586 16.9702 13.8301C16.6091 14.2017 16.1804 14.4964 15.7085 14.6974C15.2367 14.8985 14.7309 15.002 14.2202 15.002C13.1888 15.002 12.1996 14.5805 11.4702 13.8301C10.7409 13.0798 10.3311 12.0621 10.3311 11.001C10.3311 9.93987 10.7409 8.9222 11.4702 8.17187C12.1996 7.42153 13.1888 7 14.2202 7ZM14.2202 8.2003C13.8627 8.2003 13.5087 8.27274 13.1784 8.41349C12.8481 8.55424 12.548 8.76054 12.2952 9.02061C12.0424 9.28068 11.8419 9.58942 11.7051 9.92922C11.5683 10.269 11.4979 10.6332 11.4979 11.001C11.4979 11.3688 11.5683 11.733 11.7051 12.0728C11.8419 12.4126 12.0424 12.7213 12.2952 12.9814C12.548 13.2415 12.8481 13.4478 13.1784 13.5885C13.5087 13.7293 13.8627 13.8017 14.2202 13.8017C14.9422 13.8017 15.6347 13.5066 16.1452 12.9814C16.6558 12.4562 16.9426 11.7438 16.9426 11.001C16.9426 10.2582 16.6558 9.54584 16.1452 9.02061C15.6347 8.49537 14.9422 8.2003 14.2202 8.2003Z" fill="white"/>
<defs>
<linearGradient id="paint0_linear_3831_2" x1="15" y1="0" x2="15" y2="30" gradientUnits="userSpaceOnUse">
<stop stop-color="#B88746"/>
<stop offset="1" stop-color="#DFBD69"/>
</linearGradient>
</defs>
</svg>
