<svg width="30" height="30" viewBox="0 0 30 30" fill="none" xmlns="http://www.w3.org/2000/svg">
<rect width="30" height="30" rx="10" fill="url(#paint0_linear_3832_2)"/>
<path d="M10.75 20.8667V21.9333C10.75 22.2162 10.6381 22.4875 10.4388 22.6876C10.2395 22.8876 9.96929 23 9.6875 23C9.40571 23 9.13546 22.8876 8.9362 22.6876C8.73694 22.4875 8.625 22.2162 8.625 21.9333V20.8667H10.75ZM21.375 20.8667V21.9333C21.375 22.2162 21.2631 22.4875 21.0638 22.6876C20.8645 22.8876 20.5943 23 20.3125 23C20.0307 23 19.7605 22.8876 19.5612 22.6876C19.3619 22.4875 19.25 22.2162 19.25 21.9333V20.8667H21.375ZM19.1012 7C19.7155 6.99988 20.3107 7.21345 20.7857 7.60436C21.2607 7.99526 21.5861 8.53935 21.7065 9.144L21.9158 10.2H22.7031C22.8957 10.2 23.0817 10.27 23.2269 10.3971C23.372 10.5242 23.4664 10.6997 23.4926 10.8912L23.5 11C23.5 11.1933 23.4303 11.3801 23.3037 11.5258C23.1771 11.6715 23.0023 11.7662 22.8115 11.7925L22.7031 11.8H22.2346L22.3536 12.3973C22.6844 12.4945 22.975 12.6967 23.1817 12.9736C23.3884 13.2505 23.5001 13.5873 23.5 13.9333V18.2C23.5 18.6243 23.3321 19.0313 23.0332 19.3314C22.7343 19.6314 22.3289 19.8 21.9062 19.8H8.09375C7.67106 19.8 7.26568 19.6314 6.9668 19.3314C6.66791 19.0313 6.5 18.6243 6.5 18.2V13.9333C6.49993 13.5873 6.61163 13.2505 6.81832 12.9736C7.02502 12.6967 7.31559 12.4945 7.64644 12.3973L7.76438 11.8H7.29688C7.08553 11.8 6.88284 11.7157 6.7334 11.5657C6.58396 11.4157 6.5 11.2122 6.5 11C6.5 10.7878 6.58396 10.5843 6.7334 10.4343C6.88284 10.2843 7.08553 10.2 7.29688 10.2H8.08312L8.2935 9.144C8.41388 8.53935 8.73927 7.99526 9.21428 7.60436C9.68928 7.21345 10.2845 6.99988 10.8987 7H19.1012ZM10.75 15C10.4682 15 10.198 15.1124 9.9987 15.3124C9.79944 15.5125 9.6875 15.7838 9.6875 16.0667C9.6875 16.3496 9.79944 16.6209 9.9987 16.8209C10.198 17.021 10.4682 17.1333 10.75 17.1333C11.0318 17.1333 11.302 17.021 11.5013 16.8209C11.7006 16.6209 11.8125 16.3496 11.8125 16.0667C11.8125 15.7838 11.7006 15.5125 11.5013 15.3124C11.302 15.1124 11.0318 15 10.75 15ZM19.25 15C18.9682 15 18.698 15.1124 18.4987 15.3124C18.2994 15.5125 18.1875 15.7838 18.1875 16.0667C18.1875 16.3496 18.2994 16.6209 18.4987 16.8209C18.698 17.021 18.9682 17.1333 19.25 17.1333C19.5318 17.1333 19.802 17.021 20.0013 16.8209C20.2006 16.6209 20.3125 16.3496 20.3125 16.0667C20.3125 15.7838 20.2006 15.5125 20.0013 15.3124C19.802 15.1124 19.5318 15 19.25 15ZM19.1012 8.06667H10.8987C10.5303 8.06664 10.1732 8.19481 9.8882 8.42935C9.60324 8.66389 9.40804 8.99031 9.33581 9.35307L8.74081 12.3333H21.2581L20.6642 9.35307C20.592 8.99049 20.397 8.6642 20.1122 8.42969C19.8275 8.19517 19.4706 8.06689 19.1023 8.06667H19.1012Z" fill="white"/>
<defs>
<linearGradient id="paint0_linear_3832_2" x1="15" y1="0" x2="15" y2="30" gradientUnits="userSpaceOnUse">
<stop stop-color="#B88746"/>
<stop offset="1" stop-color="#DFBD69"/>
</linearGradient>
</defs>
</svg>
