<svg width="30" height="30" viewBox="0 0 30 30" fill="none" xmlns="http://www.w3.org/2000/svg">
<rect width="30" height="30" rx="10" fill="url(#paint0_linear_2881_36)"/>
<path d="M14.9988 7.88901C13.5924 7.88901 12.2175 8.30607 11.0481 9.08745C9.87867 9.86882 8.96722 10.9794 8.429 12.2788C7.89078 13.5782 7.74995 15.008 8.02434 16.3874C8.29872 17.7668 8.97599 19.0339 9.97049 20.0284C10.965 21.0229 12.2321 21.7002 13.6115 21.9746C14.9909 22.249 16.4207 22.1081 17.7201 21.5699C19.0195 21.0317 20.1301 20.1203 20.9115 18.9508C21.6929 17.7814 22.1099 16.4066 22.1099 15.0001C22.1099 13.1141 21.3607 11.3054 20.0271 9.9718C18.6935 8.63821 16.8848 7.88901 14.9988 7.88901ZM17.6121 11.889H18.5544C18.6722 11.889 18.7853 11.9358 18.8686 12.0192C18.952 12.1025 18.9988 12.2156 18.9988 12.3335C18.9988 12.4513 18.952 12.5644 18.8686 12.6477C18.7853 12.7311 18.6722 12.7779 18.5544 12.7779H17.781V12.8623C17.7875 13.2185 17.7236 13.5725 17.593 13.9039C17.4623 14.2354 17.2676 14.5378 17.0198 14.7938C16.7721 15.0498 16.4762 15.2544 16.1492 15.3958C15.8223 15.5372 15.4706 15.6127 15.1144 15.6179H14.2255L17.2566 19.2001C17.3521 19.3127 17.3989 19.4586 17.3868 19.6057C17.3747 19.7528 17.3047 19.8891 17.1921 19.9846C17.0796 20.08 16.9337 20.1269 16.7866 20.1148C16.6395 20.1027 16.5032 20.0327 16.4077 19.9201L12.6121 15.4179C12.5421 15.3357 12.4975 15.2349 12.4838 15.1278C12.4702 15.0207 12.488 14.912 12.5351 14.8149C12.5823 14.7177 12.6567 14.6364 12.7493 14.5809C12.8419 14.5254 12.9487 14.4981 13.0566 14.5023H15.1499C15.5724 14.4896 15.9725 14.3097 16.2624 14.0022C16.5524 13.6948 16.7086 13.2848 16.6966 12.8623V12.7735H12.6966C12.5787 12.7735 12.4657 12.7266 12.3823 12.6433C12.299 12.5599 12.2521 12.4469 12.2521 12.329C12.2521 12.2111 12.299 12.0981 12.3823 12.0147C12.4657 11.9314 12.5787 11.8846 12.6966 11.8846H16.3944C16.2575 11.682 16.0736 11.5156 15.8584 11.3995C15.6433 11.2834 15.4033 11.2211 15.1588 11.2179H12.6655C12.5181 11.2179 12.3768 11.1594 12.2726 11.0552C12.1685 10.951 12.1099 10.8097 12.1099 10.6623C12.1099 10.515 12.1685 10.3737 12.2726 10.2695C12.3768 10.1653 12.5181 10.1068 12.6655 10.1068H18.5544C18.6722 10.1068 18.7853 10.1536 18.8686 10.237C18.952 10.3203 18.9988 10.4334 18.9988 10.5512C18.9988 10.6691 18.952 10.7821 18.8686 10.8655C18.7853 10.9488 18.6722 10.9957 18.5544 10.9957H17.0788C17.3114 11.2571 17.4924 11.5602 17.6121 11.889Z" fill="white"/>
<defs>
<linearGradient id="paint0_linear_2881_36" x1="15" y1="0" x2="15" y2="30" gradientUnits="userSpaceOnUse">
<stop stop-color="#B88746"/>
<stop offset="1" stop-color="#DFBD69"/>
</linearGradient>
</defs>
</svg>
