<svg width="30" height="30" viewBox="0 0 30 30" fill="none" xmlns="http://www.w3.org/2000/svg">
<path d="M14.9651 7.27222C12.9252 7.27222 10.9689 8.08255 9.52653 9.52494C8.08413 10.9673 7.2738 12.9236 7.2738 14.9635C7.2738 17.0034 8.08413 18.9597 9.52653 20.4021C10.9689 21.8445 12.9252 22.6548 14.9651 22.6548C17.0049 22.6548 18.9613 21.8445 20.4036 20.4021C21.846 18.9597 22.6564 17.0034 22.6564 14.9635C22.6564 12.9236 21.846 10.9673 20.4036 9.52494C18.9613 8.08255 17.0049 7.27222 14.9651 7.27222V7.27222ZM14.9651 19.9585C13.6399 19.9585 12.369 19.4321 11.4319 18.495C10.4948 17.558 9.96841 16.287 9.96841 14.9618C9.96841 13.6366 10.4948 12.3657 11.4319 11.4287C12.369 10.4916 13.6399 9.96517 14.9651 9.96517C16.2903 9.96517 17.5612 10.4916 18.4983 11.4287C19.4353 12.3657 19.9618 13.6366 19.9618 14.9618C19.9618 16.287 19.4353 17.558 18.4983 18.495C17.5612 19.4321 16.2903 19.9585 14.9651 19.9585V19.9585Z" fill="#B88746"/>
<path d="M22.9609 8.78245C23.9512 8.78245 24.754 7.97966 24.754 6.98937C24.754 5.99908 23.9512 5.19629 22.9609 5.19629C21.9706 5.19629 21.1678 5.99908 21.1678 6.98937C21.1678 7.97966 21.9706 8.78245 22.9609 8.78245Z" fill="#B88746"/>
<path d="M29.16 5.16633C28.775 4.17196 28.1865 3.26893 27.4324 2.51507C26.6782 1.7612 25.775 1.17311 24.7804 0.788423C23.6167 0.351558 22.3872 0.115338 21.1444 0.0898202C19.5426 0.0199599 19.0353 0 14.9734 0C10.9115 0 10.3909 -1.67303e-07 8.8024 0.0898202C7.56053 0.114033 6.33193 0.350302 5.16966 0.788423C4.17488 1.17266 3.2714 1.7606 2.51719 2.51452C1.76298 3.26844 1.1747 4.1717 0.790086 5.16633C0.353135 6.33003 0.117456 7.55961 0.093147 8.8024C0.0216234 10.4025 0 10.9098 0 14.9734C0 19.0353 -1.23928e-08 19.5526 0.093147 21.1444C0.118097 22.3886 0.352628 23.6161 0.790086 24.7821C1.17578 25.7764 1.76463 26.6793 2.51902 27.4331C3.27341 28.1869 4.17675 28.7751 5.17132 29.16C6.33139 29.6144 7.5605 29.8676 8.80572 29.9085C10.4075 29.9784 10.9148 30 14.9767 30C19.0386 30 19.5592 30 21.1477 29.9085C22.3904 29.8832 23.6198 29.6476 24.7838 29.2116C25.778 28.826 26.681 28.2374 27.4351 27.4833C28.1892 26.7293 28.7778 25.8263 29.1633 24.832C29.6008 23.6677 29.8353 22.4401 29.8603 21.1959C29.9318 19.5958 29.9534 19.0885 29.9534 15.025C29.9534 10.9614 29.9534 10.4458 29.8603 8.85396C29.8409 7.5936 29.604 6.34606 29.16 5.16633V5.16633ZM27.1341 21.0213C27.1233 21.9799 26.9484 22.9295 26.6168 23.829C26.367 24.4758 25.9846 25.0632 25.4941 25.5534C25.0037 26.0435 24.4161 26.4256 23.7691 26.675C22.8796 27.0051 21.9401 27.18 20.9914 27.1923C19.4112 27.2655 18.9654 27.2838 14.9135 27.2838C10.8583 27.2838 10.4441 27.2838 8.834 27.1923C7.88577 27.1807 6.94665 27.0057 6.05788 26.675C5.40866 26.4271 4.8187 26.0457 4.32616 25.5555C3.83363 25.0652 3.44949 24.4771 3.1986 23.829C2.87167 22.9392 2.69679 22.0007 2.6813 21.0529C2.60978 19.4727 2.59315 19.0269 2.59315 14.9751C2.59315 10.9215 2.59315 10.5073 2.6813 8.89554C2.69206 7.9375 2.86702 6.98839 3.1986 6.08949C3.70592 4.77711 4.74551 3.74418 6.05788 3.24185C6.94709 2.91274 7.88594 2.7378 8.834 2.72455C10.4158 2.65303 10.8599 2.63307 14.9135 2.63307C18.9671 2.63307 19.3829 2.63307 20.9914 2.72455C21.9401 2.73596 22.8798 2.91096 23.7691 3.24185C24.416 3.4918 25.0036 3.87426 25.494 4.36465C25.9844 4.85505 26.3668 5.44257 26.6168 6.08949C26.9437 6.97929 27.1186 7.91777 27.1341 8.8656C27.2056 10.4474 27.2239 10.8916 27.2239 14.9451C27.2239 18.997 27.2239 19.4328 27.1524 21.023H27.1341V21.0213Z" fill="#B88746"/>
</svg>
