<svg width="36" height="35" viewBox="0 0 36 35" fill="none" xmlns="http://www.w3.org/2000/svg">
<path fill-rule="evenodd" clip-rule="evenodd" d="M6.83122 17.5C6.83143 15.2548 7.47947 13.0574 8.69757 11.1714C9.91568 9.28535 11.6521 7.79088 13.6985 6.86727C15.7449 5.94366 18.0144 5.63015 20.2345 5.96436C22.4547 6.29856 24.5313 7.26628 26.2151 8.75141C27.8989 10.2365 29.1184 12.176 29.7273 14.337C30.3362 16.498 30.3086 18.7888 29.6479 20.9346C28.9871 23.0803 27.7212 24.9898 26.0021 26.434C24.2831 27.8781 22.1838 28.7956 19.9562 29.0762V20.4166H22.8729C23.2597 20.4166 23.6306 20.263 23.9041 19.9895C24.1776 19.716 24.3312 19.3451 24.3312 18.9583C24.3312 18.5715 24.1776 18.2006 23.9041 17.9271C23.6306 17.6536 23.2597 17.5 22.8729 17.5H19.9562V14.5833C19.9562 14.1965 20.1099 13.8256 20.3834 13.5521C20.6568 13.2786 21.0278 13.125 21.4145 13.125H22.1437C22.5305 13.125 22.9014 12.9713 23.1749 12.6978C23.4484 12.4243 23.602 12.0534 23.602 11.6666C23.602 11.2799 23.4484 10.9089 23.1749 10.6354C22.9014 10.3619 22.5305 10.2083 22.1437 10.2083H21.4145C20.2542 10.2083 19.1414 10.6692 18.321 11.4897C17.5005 12.3102 17.0396 13.423 17.0396 14.5833V17.5H14.1229C13.7361 17.5 13.3652 17.6536 13.0917 17.9271C12.8182 18.2006 12.6646 18.5715 12.6646 18.9583C12.6646 19.3451 12.8182 19.716 13.0917 19.9895C13.3652 20.263 13.7361 20.4166 14.1229 20.4166H17.0396V29.0762C14.2202 28.7207 11.6274 27.3485 9.74789 25.2171C7.86836 23.0857 6.83127 20.3417 6.83122 17.5V17.5ZM18.4979 32.0833C26.5523 32.0833 33.0812 25.5543 33.0812 17.5C33.0812 9.44558 26.5523 2.91663 18.4979 2.91663C10.4435 2.91663 3.91455 9.44558 3.91455 17.5C3.91455 25.5543 10.4435 32.0833 18.4979 32.0833Z" fill="#B88746"/>
</svg>
