<svg width="30" height="30" viewBox="0 0 30 30" fill="none" xmlns="http://www.w3.org/2000/svg">
<path d="M30 14.9999C30 12.0332 29.1203 9.13313 27.472 6.66639C25.8238 4.19965 23.4811 2.27707 20.7403 1.14175C17.9994 0.00643823 14.9834 -0.290612 12.0736 0.288166C9.16394 0.866945 6.49119 2.29556 4.3934 4.39334C2.29562 6.49113 0.867006 9.16387 0.288228 12.0736C-0.290551 14.9833 0.00649927 17.9993 1.14181 20.7402C2.27713 23.4811 4.19971 25.8238 6.66645 27.472C9.13319 29.1202 12.0333 29.9999 15 29.9999C18.9771 29.9961 22.7902 28.4145 25.6024 25.6023C28.4146 22.7901 29.9962 18.977 30 14.9999V14.9999ZM16.1538 27.6346V18.4615H19.6154C19.9214 18.4615 20.2149 18.3399 20.4313 18.1235C20.6477 17.9071 20.7692 17.6137 20.7692 17.3076C20.7692 17.0016 20.6477 16.7081 20.4313 16.4917C20.2149 16.2754 19.9214 16.1538 19.6154 16.1538H16.1538V12.6923C16.1538 12.0802 16.397 11.4932 16.8298 11.0605C17.2625 10.6277 17.8495 10.3846 18.4615 10.3846H20.7692C21.0753 10.3846 21.3687 10.263 21.5851 10.0466C21.8015 9.83022 21.9231 9.53673 21.9231 9.23071C21.9231 8.92469 21.8015 8.63121 21.5851 8.41482C21.3687 8.19843 21.0753 8.07687 20.7692 8.07687H18.4615C17.2386 8.08067 16.0669 8.56815 15.2022 9.43288C14.3374 10.2976 13.85 11.4693 13.8462 12.6923V16.1538H10.3846C10.0786 16.1538 9.78512 16.2754 9.56873 16.4917C9.35234 16.7081 9.23077 17.0016 9.23077 17.3076C9.23077 17.6137 9.35234 17.9071 9.56873 18.1235C9.78512 18.3399 10.0786 18.4615 10.3846 18.4615H13.8462V27.6346C10.5935 27.3376 7.58043 25.7982 5.43381 23.3364C3.28719 20.8747 2.17223 17.6801 2.32084 14.4173C2.46946 11.1544 3.87022 8.07449 6.23175 5.81808C8.59328 3.56167 11.7338 2.3025 15 2.3025C18.2662 2.3025 21.4067 3.56167 23.7683 5.81808C26.1298 8.07449 27.5305 11.1544 27.6792 14.4173C27.8278 17.6801 26.7128 20.8747 24.5662 23.3364C22.4196 25.7982 19.4065 27.3376 16.1538 27.6346V27.6346Z" fill="black"/>
</svg>
