<svg width="31" height="31" viewBox="0 0 31 31" fill="none" xmlns="http://www.w3.org/2000/svg">
<path fill-rule="evenodd" clip-rule="evenodd" d="M3.91455 15.9166C3.91477 13.6073 4.58132 11.3471 5.83423 9.4072C7.08714 7.46731 8.87319 5.93014 10.9781 4.98015C13.0829 4.03015 15.4172 3.70768 17.7008 4.05144C19.9844 4.39519 22.1203 5.39056 23.8522 6.91812C25.5841 8.44567 26.8385 10.4405 27.4648 12.6633C28.0911 14.8861 28.0627 17.2423 27.3831 19.4494C26.7035 21.6564 25.4014 23.6205 23.6332 25.1059C21.865 26.5913 19.7058 27.535 17.4146 27.8236V18.9166H20.4146C20.8124 18.9166 21.1939 18.7586 21.4752 18.4773C21.7565 18.196 21.9146 17.8145 21.9146 17.4166C21.9146 17.0188 21.7565 16.6373 21.4752 16.356C21.1939 16.0747 20.8124 15.9166 20.4146 15.9166H17.4146V12.9166C17.4146 12.5188 17.5726 12.1373 17.8539 11.856C18.1352 11.5747 18.5167 11.4166 18.9146 11.4166H19.6646C20.0624 11.4166 20.4439 11.2586 20.7252 10.9773C21.0065 10.696 21.1646 10.3145 21.1646 9.91663C21.1646 9.5188 21.0065 9.13727 20.7252 8.85597C20.4439 8.57466 20.0624 8.41663 19.6646 8.41663H18.9146C17.7211 8.41663 16.5765 8.89073 15.7326 9.73465C14.8887 10.5786 14.4146 11.7232 14.4146 12.9166V15.9166H11.4146C11.0167 15.9166 10.6352 16.0747 10.3539 16.356C10.0726 16.6373 9.91455 17.0188 9.91455 17.4166C9.91455 17.8145 10.0726 18.196 10.3539 18.4773C10.6352 18.7586 11.0167 18.9166 11.4146 18.9166H14.4146V27.8236C11.5146 27.4579 8.84778 26.0465 6.91456 23.8542C4.98133 21.662 3.9146 18.8395 3.91455 15.9166V15.9166ZM15.9146 30.9166C24.1991 30.9166 30.9146 24.2011 30.9146 15.9166C30.9146 7.63213 24.1991 0.916626 15.9146 0.916626C7.63005 0.916626 0.914551 7.63213 0.914551 15.9166C0.914551 24.2011 7.63005 30.9166 15.9146 30.9166Z" fill="black"/>
</svg>
