<svg width="31" height="31" viewBox="0 0 31 31" fill="none" xmlns="http://www.w3.org/2000/svg">
<path d="M25.8654 0.0599976H4.25469C3.14316 0.0630968 2.07804 0.506025 1.29206 1.292C0.506086 2.07798 0.0631579 3.1431 0.0600586 4.25463V25.8654C0.0631579 26.9769 0.506086 28.042 1.29206 28.828C2.07804 29.614 3.14316 30.0569 4.25469 30.06H25.8654C26.9779 30.06 28.0448 29.6181 28.8315 28.8314C29.6181 28.0448 30.0601 26.9779 30.0601 25.8654V4.25463C30.0601 3.14214 29.6181 2.07522 28.8315 1.28858C28.0448 0.501931 26.9779 0.0599976 25.8654 0.0599976V0.0599976ZM28.3822 25.8654C28.3774 26.5314 28.1107 27.1687 27.6397 27.6397C27.1688 28.1106 26.5314 28.3773 25.8654 28.3821H4.25469C3.58869 28.3773 2.95134 28.1106 2.4804 27.6397C2.00945 27.1687 1.74274 26.5314 1.73791 25.8654V4.25463C1.74274 3.58863 2.00945 2.95128 2.4804 2.48034C2.95134 2.00939 3.58869 1.74268 4.25469 1.73785H25.8654C26.5314 1.74268 27.1688 2.00939 27.6397 2.48034C28.1107 2.95128 28.3774 3.58863 28.3822 4.25463V25.8654Z" fill="black"/>
<path d="M5.62378 12.9593C5.62378 12.5143 5.80055 12.0875 6.11521 11.7729C6.42987 11.4582 6.85664 11.2814 7.30163 11.2814C7.74663 11.2814 8.17339 11.4582 8.48805 11.7729C8.80271 12.0875 8.97948 12.5143 8.97948 12.9593V23.8653C8.97948 24.3103 8.80271 24.7371 8.48805 25.0517C8.17339 25.3664 7.74663 25.5432 7.30163 25.5432C6.85664 25.5432 6.42987 25.3664 6.11521 25.0517C5.80055 24.7371 5.62378 24.3103 5.62378 23.8653V12.9593Z" fill="black"/>
<path d="M7.30163 7.91912C8.22828 7.91912 8.97948 7.16792 8.97948 6.24127C8.97948 5.31462 8.22828 4.56342 7.30163 4.56342C6.37498 4.56342 5.62378 5.31462 5.62378 6.24127C5.62378 7.16792 6.37498 7.91912 7.30163 7.91912Z" fill="black"/>
<path d="M24.4893 17.3587V23.8687C24.4893 24.3137 24.3125 24.7405 23.9978 25.0551C23.6832 25.3698 23.2564 25.5466 22.8114 25.5466C22.3664 25.5466 21.9397 25.3698 21.625 25.0551C21.3103 24.7405 21.1336 24.3137 21.1336 23.8687V17.3587C21.1336 16.64 20.8481 15.9508 20.3399 15.4426C19.8317 14.9344 19.1425 14.6489 18.4238 14.6489C17.7052 14.6489 17.0159 14.9344 16.5078 15.4426C15.9996 15.9508 15.7141 16.64 15.7141 17.3587V23.8687C15.7141 24.3137 15.5373 24.7405 15.2227 25.0551C14.908 25.3698 14.4812 25.5466 14.0363 25.5466C13.5913 25.5466 13.1645 25.3698 12.8498 25.0551C12.5352 24.7405 12.3584 24.3137 12.3584 23.8687V12.9627C12.3653 12.5198 12.5443 12.0971 12.8575 11.7839C13.1707 11.4707 13.5934 11.2918 14.0363 11.2848C14.3204 11.277 14.6014 11.3462 14.8495 11.485C15.0976 11.6239 15.3036 11.8272 15.4456 12.0734C16.3682 11.55 17.412 11.2781 18.4726 11.2848C19.5333 11.2916 20.5735 11.5769 21.4893 12.112C22.405 12.6472 23.1641 13.4135 23.6906 14.3343C24.2171 15.2551 24.4925 16.298 24.4893 17.3587V17.3587Z" fill="black"/>
</svg>
