<svg width="43" height="31" viewBox="0 0 43 31" fill="none" xmlns="http://www.w3.org/2000/svg">
<path d="M42.2416 15.3522C42.2416 15.2506 42.2416 15.1352 42.237 15.0013C42.2323 14.6273 42.2231 14.2072 42.2139 13.7594C42.1769 12.4713 42.1123 11.1878 42.0107 9.97821C41.8722 8.31155 41.6691 6.92189 41.3921 5.87849C41.0998 4.78961 40.5268 3.79654 39.7304 2.99851C38.934 2.20049 37.942 1.62547 36.8538 1.33094C35.5472 0.98006 32.9895 0.76307 29.3884 0.629183C27.6756 0.564548 25.8427 0.522996 24.0098 0.499912C23.3681 0.490679 22.7725 0.486062 22.237 0.481445H20.8796C20.3441 0.486062 19.7485 0.490679 19.1068 0.499912C17.2739 0.522996 15.441 0.564548 13.7282 0.629183C10.1271 0.767687 7.56475 0.984677 6.26281 1.33094C5.17417 1.62475 4.18188 2.19952 3.38536 2.99766C2.58885 3.79579 2.01609 4.78926 1.72449 5.87849C1.44287 6.92189 1.24434 8.31155 1.10584 9.97821C1.00427 11.1878 0.939635 12.4713 0.902701 13.7594C0.88885 14.2072 0.884234 14.6273 0.879617 15.0013C0.879617 15.1352 0.875 15.2506 0.875 15.3522V15.6107C0.875 15.7123 0.875 15.8277 0.879617 15.9616C0.884234 16.3356 0.893467 16.7557 0.902701 17.2035C0.939635 18.4916 1.00427 19.7751 1.10584 20.9847C1.24434 22.6513 1.44748 24.041 1.72449 25.0844C2.31544 27.2958 4.05136 29.041 6.26281 29.632C7.56475 29.9828 10.1271 30.1998 13.7282 30.3337C15.441 30.3983 17.2739 30.4399 19.1068 30.463C19.7485 30.4722 20.3441 30.4768 20.8796 30.4814H22.237C22.7725 30.4768 23.3681 30.4722 24.0098 30.463C25.8427 30.4399 27.6756 30.3983 29.3884 30.3337C32.9895 30.1952 35.5518 29.9782 36.8538 29.632C39.0652 29.041 40.8011 27.3005 41.3921 25.0844C41.6737 24.041 41.8722 22.6513 42.0107 20.9847C42.1123 19.7751 42.1769 18.4916 42.2139 17.2035C42.2277 16.7557 42.2323 16.3356 42.237 15.9616C42.237 15.8277 42.2416 15.7123 42.2416 15.6107V15.3522V15.3522ZM38.9175 15.5922C38.9175 15.6892 38.9175 15.7954 38.9129 15.92C38.9082 16.2802 38.899 16.6772 38.8898 17.1066C38.8575 18.3346 38.7928 19.5627 38.6959 20.703C38.5712 22.1897 38.3958 23.4085 38.1788 24.2257C37.8925 25.2922 37.0523 26.137 35.9904 26.4187C35.0209 26.6772 32.5786 26.885 29.2591 27.0096C27.5786 27.0742 25.7688 27.1158 23.9636 27.1389C23.3311 27.1481 22.7448 27.1527 22.2185 27.1527H20.8981L19.1529 27.1389C17.3478 27.1158 15.5426 27.0742 13.8575 27.0096C10.538 26.8803 8.09107 26.6772 7.12615 26.4187C6.06429 26.1324 5.22403 25.2922 4.93779 24.2257C4.7208 23.4085 4.54536 22.1897 4.42071 20.703C4.32375 19.5627 4.26374 18.3346 4.2268 17.1066C4.21295 16.6772 4.20833 16.2755 4.20372 15.92C4.20372 15.7954 4.1991 15.6846 4.1991 15.5922V15.3706C4.1991 15.2737 4.1991 15.1675 4.20372 15.0428C4.20833 14.6827 4.21757 14.2857 4.2268 13.8563C4.25912 12.6283 4.32375 11.4002 4.42071 10.2598C4.54536 8.77323 4.7208 7.55439 4.93779 6.73722C5.22403 5.67073 6.06429 4.82586 7.12615 4.54423C8.09568 4.28569 10.538 4.07794 13.8575 3.95328C15.538 3.88865 17.3478 3.8471 19.1529 3.82401C19.7854 3.81478 20.3718 3.81016 20.8981 3.81016H22.2185L23.9636 3.82401C25.7688 3.8471 27.574 3.88865 29.2591 3.95328C32.5786 4.08255 35.0255 4.28569 35.9904 4.54423C37.0523 4.83048 37.8925 5.67073 38.1788 6.73722C38.3958 7.55439 38.5712 8.77323 38.6959 10.2598C38.7928 11.4002 38.8528 12.6283 38.8898 13.8563C38.9036 14.2857 38.9082 14.6874 38.9129 15.0428C38.9129 15.1675 38.9175 15.2783 38.9175 15.3706V15.5922ZM17.4493 21.668L28.1603 15.4353L17.4493 9.29493V21.668Z" fill="black"/>
</svg>
