<svg width="80" height="80" viewBox="0 0 80 80" fill="none" xmlns="http://www.w3.org/2000/svg">
<rect x="1" y="1" width="78" height="78" rx="19" stroke="#B88746" stroke-width="2"/>
<path d="M49.3751 15H60.7602L61.0102 15.035L61.2577 15.105L61.4077 15.17C61.6077 15.255 61.7901 15.3825 61.9552 15.545L62.0551 15.655L62.1651 15.7975L62.3002 16.0225L62.3977 16.2475L62.4451 16.4075L62.4801 16.5675L62.5027 16.805V28.135C62.5025 28.6101 62.322 29.0674 61.9977 29.4145C61.6734 29.7616 61.2294 29.9727 60.7555 30.0051C60.2815 30.0374 59.8129 29.8887 59.4444 29.5889C59.0759 29.2891 58.8349 28.8606 58.7701 28.39L58.7527 28.135V21.3975L42.6526 37.4975C42.3352 37.815 41.9143 38.0081 41.4665 38.0416C41.0187 38.0751 40.5738 37.9468 40.2126 37.68L40.0026 37.5L32.4277 30.225L18.2026 44.4475C17.8681 44.783 17.4189 44.9794 16.9455 44.9972C16.472 45.015 16.0094 44.8529 15.6505 44.5435C15.2917 44.2341 15.0634 43.8003 15.0113 43.3294C14.9593 42.8584 15.0875 42.3853 15.3701 42.005L15.5526 41.795L31.1026 26.245C31.4204 25.9278 31.8415 25.7352 32.2892 25.7022C32.737 25.6692 33.1818 25.7979 33.5427 26.065L33.7526 26.245L41.3276 33.52L56.0976 18.75H49.3726C48.92 18.7494 48.4828 18.585 48.1419 18.2873C47.8009 17.9895 47.5792 17.5785 47.5177 17.13L47.5001 16.875C47.5002 16.4219 47.6643 15.9841 47.9621 15.6427C48.2599 15.3012 48.6713 15.0791 49.1201 15.0175L49.3776 15H49.3751ZM16.8776 52.5C17.3749 52.5 17.8518 52.6975 18.2035 53.0492C18.5551 53.4008 18.7526 53.8777 18.7526 54.375V63.125C18.7526 63.6223 18.5551 64.0992 18.2035 64.4508C17.8518 64.8025 17.3749 65 16.8776 65C16.3804 65 15.9035 64.8025 15.5518 64.4508C15.2002 64.0992 15.0026 63.6223 15.0026 63.125V54.375C15.0026 53.8777 15.2002 53.4008 15.5518 53.0492C15.9035 52.6975 16.3804 52.5 16.8776 52.5ZM31.2526 44.375C31.2526 43.8777 31.0551 43.4008 30.7035 43.0492C30.3518 42.6975 29.8749 42.5 29.3776 42.5C28.8804 42.5 28.4035 42.6975 28.0518 43.0492C27.7002 43.4008 27.5026 43.8777 27.5026 44.375V63.125C27.5026 63.6223 27.7002 64.0992 28.0518 64.4508C28.4035 64.8025 28.8804 65 29.3776 65C29.8749 65 30.3518 64.8025 30.7035 64.4508C31.0551 64.0992 31.2526 63.6223 31.2526 63.125V44.375ZM41.8776 47.5C42.3749 47.5 42.8518 47.6975 43.2035 48.0492C43.5551 48.4008 43.7526 48.8777 43.7526 49.375V63.125C43.7526 63.6223 43.5551 64.0992 43.2035 64.4508C42.8518 64.8025 42.3749 65 41.8776 65C41.3804 65 40.9035 64.8025 40.5518 64.4508C40.2002 64.0992 40.0026 63.6223 40.0026 63.125V49.375C40.0026 48.8777 40.2002 48.4008 40.5518 48.0492C40.9035 47.6975 41.3804 47.5 41.8776 47.5ZM56.2527 36.875C56.2527 36.3777 56.0551 35.9008 55.7035 35.5492C55.3518 35.1975 54.8749 35 54.3776 35C53.8804 35 53.4035 35.1975 53.0518 35.5492C52.7002 35.9008 52.5026 36.3777 52.5026 36.875V63.125C52.5026 63.6223 52.7002 64.0992 53.0518 64.4508C53.4035 64.8025 53.8804 65 54.3776 65C54.8749 65 55.3518 64.8025 55.7035 64.4508C56.0551 64.0992 56.2527 63.6223 56.2527 63.125V36.875Z" fill="#DFBD69"/>
</svg>
