<svg width="271" height="51" viewBox="0 0 271 51" fill="none" xmlns="http://www.w3.org/2000/svg">
<rect width="271" height="51" rx="10" fill="#DFBD69"/>
<path d="M66.76 21.2L63.92 23.7L62.22 21.74L66.84 17.84H69.64V32H66.76V21.2ZM77.7759 27.7C77.7759 28.1933 77.9559 28.6133 78.3159 28.96C78.6759 29.3067 79.1559 29.48 79.7559 29.48C80.3559 29.48 80.8359 29.3067 81.1959 28.96C81.5559 28.6133 81.7359 28.1933 81.7359 27.7C81.7359 27.1933 81.5559 26.7667 81.1959 26.42C80.8359 26.0733 80.3559 25.9 79.7559 25.9C79.1559 25.9 78.6759 26.0733 78.3159 26.42C77.9559 26.7667 77.7759 27.1933 77.7759 27.7ZM78.0159 21.92C78.0159 22.36 78.1759 22.7333 78.4959 23.04C78.8159 23.3467 79.2359 23.5 79.7559 23.5C80.2759 23.5 80.6959 23.3467 81.0159 23.04C81.3359 22.7333 81.4959 22.36 81.4959 21.92C81.4959 21.4933 81.3359 21.1267 81.0159 20.82C80.6959 20.5133 80.2759 20.36 79.7559 20.36C79.2359 20.36 78.8159 20.5133 78.4959 20.82C78.1759 21.1267 78.0159 21.4933 78.0159 21.92ZM75.0159 21.5C75.0159 20.8467 75.1359 20.28 75.3759 19.8C75.6293 19.3067 75.9693 18.9 76.3959 18.58C76.8359 18.2467 77.3426 18 77.9159 17.84C78.4893 17.68 79.1026 17.6 79.7559 17.6C80.4093 17.6 81.0226 17.68 81.5959 17.84C82.1693 18 82.6693 18.2467 83.0959 18.58C83.5226 18.9 83.8626 19.3067 84.1159 19.8C84.3693 20.28 84.4959 20.8467 84.4959 21.5C84.4959 22.2733 84.2826 22.9333 83.8559 23.48C83.4426 24.0267 82.8559 24.4133 82.0959 24.64V24.68C82.9493 24.9067 83.6026 25.32 84.0559 25.92C84.5093 26.5067 84.7359 27.24 84.7359 28.12C84.7359 28.8 84.5959 29.4 84.3159 29.92C84.0493 30.44 83.6826 30.8733 83.2159 31.22C82.7626 31.5533 82.2359 31.8067 81.6359 31.98C81.0359 32.1533 80.4093 32.24 79.7559 32.24C79.1026 32.24 78.4759 32.1533 77.8759 31.98C77.2759 31.8067 76.7426 31.5533 76.2759 31.22C75.8226 30.8733 75.4559 30.44 75.1759 29.92C74.9093 29.4 74.7759 28.8 74.7759 28.12C74.7759 27.24 75.0026 26.5067 75.4559 25.92C75.9093 25.32 76.5626 24.9067 77.4159 24.68V24.64C76.6559 24.4133 76.0626 24.0267 75.6359 23.48C75.2226 22.9333 75.0159 22.2733 75.0159 21.5ZM102.03 21.3C101.777 20.98 101.43 20.7467 100.99 20.6C100.563 20.44 100.157 20.36 99.7698 20.36C99.5432 20.36 99.3098 20.3867 99.0698 20.44C98.8298 20.4933 98.6032 20.58 98.3898 20.7C98.1765 20.8067 98.0032 20.9533 97.8698 21.14C97.7365 21.3267 97.6698 21.5533 97.6698 21.82C97.6698 22.2467 97.8298 22.5733 98.1498 22.8C98.4698 23.0267 98.8698 23.22 99.3498 23.38C99.8432 23.54 100.37 23.7 100.93 23.86C101.49 24.02 102.01 24.2467 102.49 24.54C102.983 24.8333 103.39 25.2267 103.71 25.72C104.03 26.2133 104.19 26.8733 104.19 27.7C104.19 28.4867 104.043 29.1733 103.75 29.76C103.457 30.3467 103.057 30.8333 102.55 31.22C102.057 31.6067 101.477 31.8933 100.81 32.08C100.157 32.2667 99.4632 32.36 98.7298 32.36C97.8098 32.36 96.9565 32.22 96.1698 31.94C95.3832 31.66 94.6498 31.2067 93.9698 30.58L96.1898 28.14C96.5098 28.5667 96.9098 28.9 97.3898 29.14C97.8832 29.3667 98.3898 29.48 98.9098 29.48C99.1632 29.48 99.4165 29.4533 99.6698 29.4C99.9365 29.3333 100.17 29.24 100.37 29.12C100.583 29 100.75 28.8467 100.87 28.66C101.003 28.4733 101.07 28.2533 101.07 28C101.07 27.5733 100.903 27.24 100.57 27C100.25 26.7467 99.8432 26.5333 99.3498 26.36C98.8565 26.1867 98.3232 26.0133 97.7498 25.84C97.1765 25.6667 96.6432 25.4333 96.1498 25.14C95.6565 24.8467 95.2432 24.46 94.9098 23.98C94.5898 23.5 94.4298 22.8667 94.4298 22.08C94.4298 21.32 94.5765 20.6533 94.8698 20.08C95.1765 19.5067 95.5765 19.0267 96.0698 18.64C96.5765 18.2533 97.1565 17.9667 97.8098 17.78C98.4632 17.58 99.1365 17.48 99.8298 17.48C100.63 17.48 101.403 17.5933 102.15 17.82C102.897 18.0467 103.57 18.4267 104.17 18.96L102.03 21.3ZM110.254 20.6H106.214V17.84H117.414V20.6H113.374V32H110.254V20.6ZM122.479 24.92C122.479 25.5867 122.579 26.2 122.779 26.76C122.992 27.3067 123.292 27.7867 123.679 28.2C124.065 28.6 124.525 28.9133 125.059 29.14C125.605 29.3667 126.212 29.48 126.879 29.48C127.545 29.48 128.145 29.3667 128.679 29.14C129.225 28.9133 129.692 28.6 130.079 28.2C130.465 27.7867 130.759 27.3067 130.959 26.76C131.172 26.2 131.279 25.5867 131.279 24.92C131.279 24.2667 131.172 23.66 130.959 23.1C130.759 22.54 130.465 22.06 130.079 21.66C129.692 21.2467 129.225 20.9267 128.679 20.7C128.145 20.4733 127.545 20.36 126.879 20.36C126.212 20.36 125.605 20.4733 125.059 20.7C124.525 20.9267 124.065 21.2467 123.679 21.66C123.292 22.06 122.992 22.54 122.779 23.1C122.579 23.66 122.479 24.2667 122.479 24.92ZM119.239 24.92C119.239 23.7867 119.425 22.76 119.799 21.84C120.185 20.92 120.719 20.14 121.399 19.5C122.079 18.8467 122.885 18.3467 123.819 18C124.752 17.6533 125.772 17.48 126.879 17.48C127.985 17.48 129.005 17.6533 129.939 18C130.872 18.3467 131.679 18.8467 132.359 19.5C133.039 20.14 133.565 20.92 133.939 21.84C134.325 22.76 134.519 23.7867 134.519 24.92C134.519 26.0533 134.325 27.08 133.939 28C133.565 28.92 133.039 29.7067 132.359 30.36C131.679 31 130.872 31.4933 129.939 31.84C129.005 32.1867 127.985 32.36 126.879 32.36C125.772 32.36 124.752 32.1867 123.819 31.84C122.885 31.4933 122.079 31 121.399 30.36C120.719 29.7067 120.185 28.92 119.799 28C119.425 27.08 119.239 26.0533 119.239 24.92ZM140.759 23.7H142.599C142.879 23.7 143.173 23.6933 143.479 23.68C143.799 23.6533 144.086 23.5933 144.339 23.5C144.593 23.3933 144.799 23.2333 144.959 23.02C145.133 22.8067 145.219 22.5067 145.219 22.12C145.219 21.76 145.146 21.4733 144.999 21.26C144.853 21.0467 144.666 20.8867 144.439 20.78C144.213 20.66 143.953 20.58 143.659 20.54C143.366 20.5 143.079 20.48 142.799 20.48H140.759V23.7ZM137.639 17.84H143.119C143.839 17.84 144.519 17.9133 145.159 18.06C145.813 18.1933 146.379 18.4267 146.859 18.76C147.353 19.08 147.739 19.52 148.019 20.08C148.313 20.6267 148.459 21.3133 148.459 22.14C148.459 23.14 148.199 23.9933 147.679 24.7C147.159 25.3933 146.399 25.8333 145.399 26.02L148.999 32H145.259L142.299 26.34H140.759V32H137.639V17.84ZM151.728 17.84H161.348V20.72H154.848V23.36H160.988V26.24H154.848V29.12H161.708V32H151.728V17.84ZM168.686 25.96L163.366 17.84H167.246L170.246 23.14L173.426 17.84H177.126L171.806 25.96V32H168.686V25.96ZM181.074 23.48H178.514L179.994 17.84H182.874L181.074 23.48ZM193.092 21.3C192.839 20.98 192.492 20.7467 192.052 20.6C191.626 20.44 191.219 20.36 190.832 20.36C190.606 20.36 190.372 20.3867 190.132 20.44C189.892 20.4933 189.666 20.58 189.452 20.7C189.239 20.8067 189.066 20.9533 188.932 21.14C188.799 21.3267 188.732 21.5533 188.732 21.82C188.732 22.2467 188.892 22.5733 189.212 22.8C189.532 23.0267 189.932 23.22 190.412 23.38C190.906 23.54 191.432 23.7 191.992 23.86C192.552 24.02 193.072 24.2467 193.552 24.54C194.046 24.8333 194.452 25.2267 194.772 25.72C195.092 26.2133 195.252 26.8733 195.252 27.7C195.252 28.4867 195.106 29.1733 194.812 29.76C194.519 30.3467 194.119 30.8333 193.612 31.22C193.119 31.6067 192.539 31.8933 191.872 32.08C191.219 32.2667 190.526 32.36 189.792 32.36C188.872 32.36 188.019 32.22 187.232 31.94C186.446 31.66 185.712 31.2067 185.032 30.58L187.252 28.14C187.572 28.5667 187.972 28.9 188.452 29.14C188.946 29.3667 189.452 29.48 189.972 29.48C190.226 29.48 190.479 29.4533 190.732 29.4C190.999 29.3333 191.232 29.24 191.432 29.12C191.646 29 191.812 28.8467 191.932 28.66C192.066 28.4733 192.132 28.2533 192.132 28C192.132 27.5733 191.966 27.24 191.632 27C191.312 26.7467 190.906 26.5333 190.412 26.36C189.919 26.1867 189.386 26.0133 188.812 25.84C188.239 25.6667 187.706 25.4333 187.212 25.14C186.719 24.8467 186.306 24.46 185.972 23.98C185.652 23.5 185.492 22.8667 185.492 22.08C185.492 21.32 185.639 20.6533 185.932 20.08C186.239 19.5067 186.639 19.0267 187.132 18.64C187.639 18.2533 188.219 17.9667 188.872 17.78C189.526 17.58 190.199 17.48 190.892 17.48C191.692 17.48 192.466 17.5933 193.212 17.82C193.959 18.0467 194.632 18.4267 195.232 18.96L193.092 21.3ZM208.235 20.6H204.195V17.84H215.395V20.6H211.355V32H208.235V20.6ZM222.003 21.96L220.283 26.36H223.743L222.003 21.96ZM220.803 17.84H223.383L229.543 32H226.023L224.803 29H219.303L218.123 32H214.683L220.803 17.84ZM232.087 17.84H235.207V29.12H240.987V32H232.087V17.84ZM243.83 17.84H246.95V29.12H252.73V32H243.83V17.84Z" fill="black"/>
<path d="M49.8 37.6H48.6V22C48.6 21.3635 48.3471 20.753 47.8971 20.3029C47.447 19.8529 46.8365 19.6 46.2 19.6H36.6V12.4C36.6 11.7635 36.3471 11.153 35.8971 10.7029C35.447 10.2529 34.8365 10 34.2 10H19.8C19.1635 10 18.553 10.2529 18.1029 10.7029C17.6529 11.153 17.4 11.7635 17.4 12.4V37.6H16.2C15.8817 37.6 15.5765 37.7264 15.3515 37.9515C15.1264 38.1765 15 38.4817 15 38.8C15 39.1183 15.1264 39.4235 15.3515 39.6485C15.5765 39.8736 15.8817 40 16.2 40H49.8C50.1183 40 50.4235 39.8736 50.6485 39.6485C50.8736 39.4235 51 39.1183 51 38.8C51 38.4817 50.8736 38.1765 50.6485 37.9515C50.4235 37.7264 50.1183 37.6 49.8 37.6ZM46.2 22V37.6H36.6V22H46.2ZM19.8 12.4H34.2V37.6H19.8V12.4ZM22.2 17.2C22.2 16.8817 22.3264 16.5765 22.5515 16.3515C22.7765 16.1264 23.0817 16 23.4 16H28.2C28.5183 16 28.8235 16.1264 29.0485 16.3515C29.2736 16.5765 29.4 16.8817 29.4 17.2C29.4 17.5183 29.2736 17.8235 29.0485 18.0485C28.8235 18.2736 28.5183 18.4 28.2 18.4H23.4C23.0817 18.4 22.7765 18.2736 22.5515 18.0485C22.3264 17.8235 22.2 17.5183 22.2 17.2ZM31.8 26.8C31.8 27.1183 31.6736 27.4235 31.4485 27.6485C31.2235 27.8736 30.9183 28 30.6 28H25.8C25.4817 28 25.1765 27.8736 24.9515 27.6485C24.7264 27.4235 24.6 27.1183 24.6 26.8C24.6 26.4817 24.7264 26.1765 24.9515 25.9515C25.1765 25.7264 25.4817 25.6 25.8 25.6H30.6C30.9183 25.6 31.2235 25.7264 31.4485 25.9515C31.6736 26.1765 31.8 26.4817 31.8 26.8ZM29.4 32.8C29.4 33.1183 29.2736 33.4235 29.0485 33.6485C28.8235 33.8736 28.5183 34 28.2 34H23.4C23.0817 34 22.7765 33.8736 22.5515 33.6485C22.3264 33.4235 22.2 33.1183 22.2 32.8C22.2 32.4817 22.3264 32.1765 22.5515 31.9515C22.7765 31.7264 23.0817 31.6 23.4 31.6H28.2C28.5183 31.6 28.8235 31.7264 29.0485 31.9515C29.2736 32.1765 29.4 32.4817 29.4 32.8ZM43.8 32.8C43.8 33.1183 43.6736 33.4235 43.4485 33.6485C43.2235 33.8736 42.9183 34 42.6 34H40.2C39.8817 34 39.5765 33.8736 39.3515 33.6485C39.1264 33.4235 39 33.1183 39 32.8C39 32.4817 39.1264 32.1765 39.3515 31.9515C39.5765 31.7264 39.8817 31.6 40.2 31.6H42.6C42.9183 31.6 43.2235 31.7264 43.4485 31.9515C43.6736 32.1765 43.8 32.4817 43.8 32.8ZM39 26.8C39 26.4817 39.1264 26.1765 39.3515 25.9515C39.5765 25.7264 39.8817 25.6 40.2 25.6H42.6C42.9183 25.6 43.2235 25.7264 43.4485 25.9515C43.6736 26.1765 43.8 26.4817 43.8 26.8C43.8 27.1183 43.6736 27.4235 43.4485 27.6485C43.2235 27.8736 42.9183 28 42.6 28H40.2C39.8817 28 39.5765 27.8736 39.3515 27.6485C39.1264 27.4235 39 27.1183 39 26.8Z" fill="black"/>
</svg>
