<svg width="271" height="51" viewBox="0 0 271 51" fill="none" xmlns="http://www.w3.org/2000/svg">
<rect width="271" height="51" rx="10" fill="#DFBD69"/>
<path d="M61.66 21.8V21.76H61.62L58.48 26.64H61.66V21.8ZM61.66 29.16H55.48V26.64L61.26 17.84H64.54V26.64H66.36V29.16H64.54V32H61.66V29.16ZM76.3139 17.84H85.9339V20.72H79.4339V23.36H85.5739V26.24H79.4339V29.12H86.2939V32H76.3139V17.84ZM89.9116 17.84H93.0316V29.12H98.8116V32H89.9116V17.84ZM101.654 17.84H111.274V20.72H104.774V23.36H110.914V26.24H104.774V29.12H111.634V32H101.654V17.84ZM113.731 17.84H117.291L120.791 27.12H120.831L124.391 17.84H127.731L121.891 32H119.391L113.731 17.84ZM134.843 21.96L133.123 26.36H136.583L134.843 21.96ZM133.643 17.84H136.223L142.383 32H138.863L137.643 29H132.143L130.963 32H127.523L133.643 17.84ZM145.711 20.6H141.671V17.84H152.871V20.6H148.831V32H145.711V20.6ZM157.936 24.92C157.936 25.5867 158.036 26.2 158.236 26.76C158.449 27.3067 158.749 27.7867 159.136 28.2C159.522 28.6 159.982 28.9133 160.516 29.14C161.062 29.3667 161.669 29.48 162.336 29.48C163.002 29.48 163.602 29.3667 164.136 29.14C164.682 28.9133 165.149 28.6 165.536 28.2C165.922 27.7867 166.216 27.3067 166.416 26.76C166.629 26.2 166.736 25.5867 166.736 24.92C166.736 24.2667 166.629 23.66 166.416 23.1C166.216 22.54 165.922 22.06 165.536 21.66C165.149 21.2467 164.682 20.9267 164.136 20.7C163.602 20.4733 163.002 20.36 162.336 20.36C161.669 20.36 161.062 20.4733 160.516 20.7C159.982 20.9267 159.522 21.2467 159.136 21.66C158.749 22.06 158.449 22.54 158.236 23.1C158.036 23.66 157.936 24.2667 157.936 24.92ZM154.696 24.92C154.696 23.7867 154.882 22.76 155.256 21.84C155.642 20.92 156.176 20.14 156.856 19.5C157.536 18.8467 158.342 18.3467 159.276 18C160.209 17.6533 161.229 17.48 162.336 17.48C163.442 17.48 164.462 17.6533 165.396 18C166.329 18.3467 167.136 18.8467 167.816 19.5C168.496 20.14 169.022 20.92 169.396 21.84C169.782 22.76 169.976 23.7867 169.976 24.92C169.976 26.0533 169.782 27.08 169.396 28C169.022 28.92 168.496 29.7067 167.816 30.36C167.136 31 166.329 31.4933 165.396 31.84C164.462 32.1867 163.442 32.36 162.336 32.36C161.229 32.36 160.209 32.1867 159.276 31.84C158.342 31.4933 157.536 31 156.856 30.36C156.176 29.7067 155.642 28.92 155.256 28C154.882 27.08 154.696 26.0533 154.696 24.92ZM176.216 23.7H178.056C178.336 23.7 178.63 23.6933 178.936 23.68C179.256 23.6533 179.543 23.5933 179.796 23.5C180.05 23.3933 180.256 23.2333 180.416 23.02C180.59 22.8067 180.676 22.5067 180.676 22.12C180.676 21.76 180.603 21.4733 180.456 21.26C180.31 21.0467 180.123 20.8867 179.896 20.78C179.67 20.66 179.41 20.58 179.116 20.54C178.823 20.5 178.536 20.48 178.256 20.48H176.216V23.7ZM173.096 17.84H178.576C179.296 17.84 179.976 17.9133 180.616 18.06C181.27 18.1933 181.836 18.4267 182.316 18.76C182.81 19.08 183.196 19.52 183.476 20.08C183.77 20.6267 183.916 21.3133 183.916 22.14C183.916 23.14 183.656 23.9933 183.136 24.7C182.616 25.3933 181.856 25.8333 180.856 26.02L184.456 32H180.716L177.756 26.34H176.216V32H173.096V17.84ZM194.065 21.3C193.812 20.98 193.465 20.7467 193.025 20.6C192.598 20.44 192.192 20.36 191.805 20.36C191.578 20.36 191.345 20.3867 191.105 20.44C190.865 20.4933 190.638 20.58 190.425 20.7C190.212 20.8067 190.038 20.9533 189.905 21.14C189.772 21.3267 189.705 21.5533 189.705 21.82C189.705 22.2467 189.865 22.5733 190.185 22.8C190.505 23.0267 190.905 23.22 191.385 23.38C191.878 23.54 192.405 23.7 192.965 23.86C193.525 24.02 194.045 24.2467 194.525 24.54C195.018 24.8333 195.425 25.2267 195.745 25.72C196.065 26.2133 196.225 26.8733 196.225 27.7C196.225 28.4867 196.078 29.1733 195.785 29.76C195.492 30.3467 195.092 30.8333 194.585 31.22C194.092 31.6067 193.512 31.8933 192.845 32.08C192.192 32.2667 191.498 32.36 190.765 32.36C189.845 32.36 188.992 32.22 188.205 31.94C187.418 31.66 186.685 31.2067 186.005 30.58L188.225 28.14C188.545 28.5667 188.945 28.9 189.425 29.14C189.918 29.3667 190.425 29.48 190.945 29.48C191.198 29.48 191.452 29.4533 191.705 29.4C191.972 29.3333 192.205 29.24 192.405 29.12C192.618 29 192.785 28.8467 192.905 28.66C193.038 28.4733 193.105 28.2533 193.105 28C193.105 27.5733 192.938 27.24 192.605 27C192.285 26.7467 191.878 26.5333 191.385 26.36C190.892 26.1867 190.358 26.0133 189.785 25.84C189.212 25.6667 188.678 25.4333 188.185 25.14C187.692 24.8467 187.278 24.46 186.945 23.98C186.625 23.5 186.465 22.8667 186.465 22.08C186.465 21.32 186.612 20.6533 186.905 20.08C187.212 19.5067 187.612 19.0267 188.105 18.64C188.612 18.2533 189.192 17.9667 189.845 17.78C190.498 17.58 191.172 17.48 191.865 17.48C192.665 17.48 193.438 17.5933 194.185 17.82C194.932 18.0467 195.605 18.4267 196.205 18.96L194.065 21.3Z" fill="black"/>
<path d="M23.9648 12.0508V15.4492H36.0352V12.0508H23.9648ZM27.498 12.8125H29.373L28.4355 14.6875L27.498 12.8125ZM31.875 12.8125L32.8125 14.6875H30.9375L31.875 12.8125ZM21.1523 18.0273V38.5352H29.4727V18.0273H21.1523ZM30.5273 18.0273V38.5352H38.8477V18.0273H30.5273ZM40.6641 26.2891V31.2109H43.7109V26.2891H40.6641ZM42.1875 27.8125C42.4361 27.8125 42.6746 27.9113 42.8504 28.0871C43.0262 28.2629 43.125 28.5014 43.125 28.75C43.125 28.9986 43.0262 29.2371 42.8504 29.4129C42.6746 29.5887 42.4361 29.6875 42.1875 29.6875C41.9389 29.6875 41.7004 29.5887 41.5246 29.4129C41.3488 29.2371 41.25 28.9986 41.25 28.75C41.25 28.5014 41.3488 28.2629 41.5246 28.0871C41.7004 27.9113 41.9389 27.8125 42.1875 27.8125Z" fill="black"/>
</svg>
