<svg width="271" height="51" viewBox="0 0 271 51" fill="none" xmlns="http://www.w3.org/2000/svg">
<rect width="271" height="51" rx="10" fill="#DFBD69"/>
<path d="M33.75 28.75H37.5V32.5H33.75V28.75ZM20.625 10H39.375C39.5124 10.0001 39.6481 10.0303 39.7726 10.0886C39.897 10.147 40.0071 10.2319 40.095 10.3375L44.7825 15.9625C45.0019 16.225 45 16.3581 45 16.5287V19.375C45 21.04 44.2763 22.5381 43.125 23.5675V39.0625C43.125 39.3111 43.0262 39.5496 42.8504 39.7254C42.6746 39.9012 42.4361 40 42.1875 40H30V27.8125C30 27.5639 29.9012 27.3254 29.7254 27.1496C29.5496 26.9738 29.3111 26.875 29.0625 26.875H21.5625C21.3139 26.875 21.0754 26.9738 20.8996 27.1496C20.7238 27.3254 20.625 27.5639 20.625 27.8125V40H17.8125C17.5639 40 17.3254 39.9012 17.1496 39.7254C16.9738 39.5496 16.875 39.3111 16.875 39.0625V23.5675C15.7237 22.5363 15 21.04 15 19.375V16.5625C15.0001 16.3432 15.0771 16.1309 15.2175 15.9625L19.905 10.3375C19.9929 10.2319 20.103 10.147 20.2274 10.0886C20.3519 10.0303 20.4876 10.0001 20.625 10ZM16.875 17.5V19.375C16.875 20.3696 17.2701 21.3234 17.9733 22.0266C18.6766 22.7299 19.6304 23.125 20.625 23.125C21.6196 23.125 22.5734 22.7299 23.2767 22.0266C23.9799 21.3234 24.375 20.3696 24.375 19.375V17.5H16.875ZM26.25 17.5V19.375C26.25 20.3696 26.6451 21.3234 27.3484 22.0266C28.0516 22.7299 29.0054 23.125 30 23.125C30.9946 23.125 31.9484 22.7299 32.6516 22.0266C33.3549 21.3234 33.75 20.3696 33.75 19.375V17.5H26.25ZM35.625 17.5V19.375C35.625 20.3696 36.0201 21.3234 36.7234 22.0266C37.4266 22.7299 38.3804 23.125 39.375 23.125C40.3696 23.125 41.3234 22.7299 42.0266 22.0266C42.7299 21.3234 43.125 20.3696 43.125 19.375V17.5H35.625ZM21.0638 11.875L17.94 15.625H24.6375L25.8863 11.875H21.0638ZM33.3862 15.625L32.1375 11.875H27.8625L26.6138 15.625H33.3862ZM35.3625 15.625H42.0619L38.9362 11.875H34.1138L35.3625 15.625ZM31.875 27.8125V33.4375C31.875 33.6861 31.9738 33.9246 32.1496 34.1004C32.3254 34.2762 32.5639 34.375 32.8125 34.375H38.4375C38.6861 34.375 38.9246 34.2762 39.1004 34.1004C39.2762 33.9246 39.375 33.6861 39.375 33.4375V27.8125C39.375 27.5639 39.2762 27.3254 39.1004 27.1496C38.9246 26.9738 38.6861 26.875 38.4375 26.875H32.8125C32.5639 26.875 32.3254 26.9738 32.1496 27.1496C31.9738 27.3254 31.875 27.5639 31.875 27.8125ZM28.125 40V28.75H22.5V40H28.125Z" fill="black"/>
<path d="M55.98 28.82L61.48 23.88C61.76 23.6267 62.04 23.34 62.32 23.02C62.6 22.7 62.74 22.3267 62.74 21.9C62.74 21.42 62.5667 21.0467 62.22 20.78C61.8733 20.5 61.4667 20.36 61 20.36C60.44 20.36 60 20.5333 59.68 20.88C59.3733 21.2267 59.2 21.6533 59.16 22.16L56.16 21.94C56.2 21.2067 56.3533 20.5733 56.62 20.04C56.8867 19.4933 57.24 19.04 57.68 18.68C58.12 18.32 58.6333 18.0533 59.22 17.88C59.82 17.6933 60.4667 17.6 61.16 17.6C61.8 17.6 62.4 17.6933 62.96 17.88C63.52 18.0533 64.0067 18.32 64.42 18.68C64.8333 19.0267 65.1533 19.4667 65.38 20C65.62 20.5333 65.74 21.1533 65.74 21.86C65.74 22.3133 65.6933 22.7267 65.6 23.1C65.5067 23.46 65.3733 23.7933 65.2 24.1C65.04 24.3933 64.8467 24.6667 64.62 24.92C64.3933 25.1733 64.1467 25.42 63.88 25.66L59.58 29.36H65.86V32H55.98V28.82ZM71.4959 24.92C71.4959 25.2933 71.5093 25.74 71.5359 26.26C71.5759 26.78 71.6693 27.28 71.8159 27.76C71.9626 28.24 72.1826 28.6467 72.4759 28.98C72.7826 29.3133 73.2093 29.48 73.7559 29.48C74.2893 29.48 74.7093 29.3133 75.0159 28.98C75.3226 28.6467 75.5493 28.24 75.6959 27.76C75.8426 27.28 75.9293 26.78 75.9559 26.26C75.9959 25.74 76.0159 25.2933 76.0159 24.92C76.0159 24.5467 75.9959 24.1 75.9559 23.58C75.9293 23.06 75.8426 22.56 75.6959 22.08C75.5493 21.6 75.3226 21.1933 75.0159 20.86C74.7093 20.5267 74.2893 20.36 73.7559 20.36C73.2093 20.36 72.7826 20.5267 72.4759 20.86C72.1826 21.1933 71.9626 21.6 71.8159 22.08C71.6693 22.56 71.5759 23.06 71.5359 23.58C71.5093 24.1 71.4959 24.5467 71.4959 24.92ZM68.4959 24.92C68.4959 24.08 68.5693 23.2267 68.7159 22.36C68.8759 21.4933 69.1493 20.7067 69.5359 20C69.9359 19.2933 70.4759 18.72 71.1559 18.28C71.8359 17.8267 72.7026 17.6 73.7559 17.6C74.8093 17.6 75.6759 17.8267 76.3559 18.28C77.0359 18.72 77.5693 19.2933 77.9559 20C78.3559 20.7067 78.6293 21.4933 78.7759 22.36C78.9359 23.2267 79.0159 24.08 79.0159 24.92C79.0159 25.76 78.9359 26.6133 78.7759 27.48C78.6293 28.3467 78.3559 29.1333 77.9559 29.84C77.5693 30.5467 77.0359 31.1267 76.3559 31.58C75.6759 32.02 74.8093 32.24 73.7559 32.24C72.7026 32.24 71.8359 32.02 71.1559 31.58C70.4759 31.1267 69.9359 30.5467 69.5359 29.84C69.1493 29.1333 68.8759 28.3467 68.7159 27.48C68.5693 26.6133 68.4959 25.76 68.4959 24.92ZM92.1498 23.7H93.9898C94.2698 23.7 94.5632 23.6933 94.8698 23.68C95.1898 23.6533 95.4765 23.5933 95.7298 23.5C95.9832 23.3933 96.1898 23.2333 96.3498 23.02C96.5232 22.8067 96.6098 22.5067 96.6098 22.12C96.6098 21.76 96.5365 21.4733 96.3898 21.26C96.2432 21.0467 96.0565 20.8867 95.8298 20.78C95.6032 20.66 95.3432 20.58 95.0498 20.54C94.7565 20.5 94.4698 20.48 94.1898 20.48H92.1498V23.7ZM89.0298 17.84H94.5098C95.2298 17.84 95.9098 17.9133 96.5498 18.06C97.2032 18.1933 97.7698 18.4267 98.2498 18.76C98.7432 19.08 99.1298 19.52 99.4098 20.08C99.7032 20.6267 99.8498 21.3133 99.8498 22.14C99.8498 23.14 99.5898 23.9933 99.0698 24.7C98.5498 25.3933 97.7898 25.8333 96.7898 26.02L100.39 32H96.6498L93.6898 26.34H92.1498V32H89.0298V17.84ZM103.119 17.84H112.739V20.72H106.239V23.36H112.379V26.24H106.239V29.12H113.099V32H103.119V17.84ZM119.336 20.6H115.296V17.84H126.496V20.6H122.456V32H119.336V20.6ZM133.105 21.96L131.385 26.36H134.845L133.105 21.96ZM131.905 17.84H134.485L140.645 32H137.125L135.905 29H130.405L129.225 32H125.785L131.905 17.84ZM143.029 17.84H146.149V32H143.029V17.84ZM150.107 17.84H153.227V29.12H159.007V32H150.107V17.84ZM175.647 21.3C175.394 20.98 175.047 20.7467 174.607 20.6C174.18 20.44 173.774 20.36 173.387 20.36C173.16 20.36 172.927 20.3867 172.687 20.44C172.447 20.4933 172.22 20.58 172.007 20.7C171.794 20.8067 171.62 20.9533 171.487 21.14C171.354 21.3267 171.287 21.5533 171.287 21.82C171.287 22.2467 171.447 22.5733 171.767 22.8C172.087 23.0267 172.487 23.22 172.967 23.38C173.46 23.54 173.987 23.7 174.547 23.86C175.107 24.02 175.627 24.2467 176.107 24.54C176.6 24.8333 177.007 25.2267 177.327 25.72C177.647 26.2133 177.807 26.8733 177.807 27.7C177.807 28.4867 177.66 29.1733 177.367 29.76C177.074 30.3467 176.674 30.8333 176.167 31.22C175.674 31.6067 175.094 31.8933 174.427 32.08C173.774 32.2667 173.08 32.36 172.347 32.36C171.427 32.36 170.574 32.22 169.787 31.94C169 31.66 168.267 31.2067 167.587 30.58L169.807 28.14C170.127 28.5667 170.527 28.9 171.007 29.14C171.5 29.3667 172.007 29.48 172.527 29.48C172.78 29.48 173.034 29.4533 173.287 29.4C173.554 29.3333 173.787 29.24 173.987 29.12C174.2 29 174.367 28.8467 174.487 28.66C174.62 28.4733 174.687 28.2533 174.687 28C174.687 27.5733 174.52 27.24 174.187 27C173.867 26.7467 173.46 26.5333 172.967 26.36C172.474 26.1867 171.94 26.0133 171.367 25.84C170.794 25.6667 170.26 25.4333 169.767 25.14C169.274 24.8467 168.86 24.46 168.527 23.98C168.207 23.5 168.047 22.8667 168.047 22.08C168.047 21.32 168.194 20.6533 168.487 20.08C168.794 19.5067 169.194 19.0267 169.687 18.64C170.194 18.2533 170.774 17.9667 171.427 17.78C172.08 17.58 172.754 17.48 173.447 17.48C174.247 17.48 175.02 17.5933 175.767 17.82C176.514 18.0467 177.187 18.4267 177.787 18.96L175.647 21.3ZM181.131 17.84H184.251V23.12H190.311V17.84H193.431V32H190.311V25.88H184.251V32H181.131V17.84ZM199.787 24.92C199.787 25.5867 199.887 26.2 200.087 26.76C200.301 27.3067 200.601 27.7867 200.987 28.2C201.374 28.6 201.834 28.9133 202.367 29.14C202.914 29.3667 203.521 29.48 204.187 29.48C204.854 29.48 205.454 29.3667 205.987 29.14C206.534 28.9133 207.001 28.6 207.387 28.2C207.774 27.7867 208.067 27.3067 208.267 26.76C208.481 26.2 208.587 25.5867 208.587 24.92C208.587 24.2667 208.481 23.66 208.267 23.1C208.067 22.54 207.774 22.06 207.387 21.66C207.001 21.2467 206.534 20.9267 205.987 20.7C205.454 20.4733 204.854 20.36 204.187 20.36C203.521 20.36 202.914 20.4733 202.367 20.7C201.834 20.9267 201.374 21.2467 200.987 21.66C200.601 22.06 200.301 22.54 200.087 23.1C199.887 23.66 199.787 24.2667 199.787 24.92ZM196.547 24.92C196.547 23.7867 196.734 22.76 197.107 21.84C197.494 20.92 198.027 20.14 198.707 19.5C199.387 18.8467 200.194 18.3467 201.127 18C202.061 17.6533 203.081 17.48 204.187 17.48C205.294 17.48 206.314 17.6533 207.247 18C208.181 18.3467 208.987 18.8467 209.667 19.5C210.347 20.14 210.874 20.92 211.247 21.84C211.634 22.76 211.827 23.7867 211.827 24.92C211.827 26.0533 211.634 27.08 211.247 28C210.874 28.92 210.347 29.7067 209.667 30.36C208.987 31 208.181 31.4933 207.247 31.84C206.314 32.1867 205.294 32.36 204.187 32.36C203.081 32.36 202.061 32.1867 201.127 31.84C200.194 31.4933 199.387 31 198.707 30.36C198.027 29.7067 197.494 28.92 197.107 28C196.734 27.08 196.547 26.0533 196.547 24.92ZM218.068 23.84H220.148C220.428 23.84 220.694 23.8133 220.948 23.76C221.214 23.7067 221.448 23.62 221.648 23.5C221.861 23.3667 222.028 23.1933 222.148 22.98C222.281 22.7533 222.348 22.4733 222.348 22.14C222.348 21.78 222.261 21.4933 222.088 21.28C221.928 21.0533 221.714 20.88 221.448 20.76C221.194 20.64 220.908 20.5667 220.588 20.54C220.268 20.5 219.961 20.48 219.668 20.48H218.068V23.84ZM214.948 17.84H220.208C220.941 17.84 221.634 17.9067 222.288 18.04C222.941 18.1733 223.508 18.4067 223.988 18.74C224.481 19.06 224.868 19.5 225.148 20.06C225.441 20.6067 225.588 21.3 225.588 22.14C225.588 22.9667 225.454 23.66 225.188 24.22C224.921 24.78 224.554 25.2267 224.088 25.56C223.621 25.8933 223.068 26.1333 222.428 26.28C221.788 26.4133 221.094 26.48 220.348 26.48H218.068V32H214.948V17.84ZM235.545 21.3C235.292 20.98 234.945 20.7467 234.505 20.6C234.079 20.44 233.672 20.36 233.285 20.36C233.059 20.36 232.825 20.3867 232.585 20.44C232.345 20.4933 232.119 20.58 231.905 20.7C231.692 20.8067 231.519 20.9533 231.385 21.14C231.252 21.3267 231.185 21.5533 231.185 21.82C231.185 22.2467 231.345 22.5733 231.665 22.8C231.985 23.0267 232.385 23.22 232.865 23.38C233.359 23.54 233.885 23.7 234.445 23.86C235.005 24.02 235.525 24.2467 236.005 24.54C236.499 24.8333 236.905 25.2267 237.225 25.72C237.545 26.2133 237.705 26.8733 237.705 27.7C237.705 28.4867 237.559 29.1733 237.265 29.76C236.972 30.3467 236.572 30.8333 236.065 31.22C235.572 31.6067 234.992 31.8933 234.325 32.08C233.672 32.2667 232.979 32.36 232.245 32.36C231.325 32.36 230.472 32.22 229.685 31.94C228.899 31.66 228.165 31.2067 227.485 30.58L229.705 28.14C230.025 28.5667 230.425 28.9 230.905 29.14C231.399 29.3667 231.905 29.48 232.425 29.48C232.679 29.48 232.932 29.4533 233.185 29.4C233.452 29.3333 233.685 29.24 233.885 29.12C234.099 29 234.265 28.8467 234.385 28.66C234.519 28.4733 234.585 28.2533 234.585 28C234.585 27.5733 234.419 27.24 234.085 27C233.765 26.7467 233.359 26.5333 232.865 26.36C232.372 26.1867 231.839 26.0133 231.265 25.84C230.692 25.6667 230.159 25.4333 229.665 25.14C229.172 24.8467 228.759 24.46 228.425 23.98C228.105 23.5 227.945 22.8667 227.945 22.08C227.945 21.32 228.092 20.6533 228.385 20.08C228.692 19.5067 229.092 19.0267 229.585 18.64C230.092 18.2533 230.672 17.9667 231.325 17.78C231.979 17.58 232.652 17.48 233.345 17.48C234.145 17.48 234.919 17.5933 235.665 17.82C236.412 18.0467 237.085 18.4267 237.685 18.96L235.545 21.3Z" fill="black"/>
</svg>
